<svg width="1919" height="846" viewBox="0 0 1919 846" fill="none" xmlns="http://www.w3.org/2000/svg">
<path d="M1232.41 2260.37C1216.39 2266.49 1198.76 2268.23 1180.99 2265.07L1056.17 2242.83C935.822 2221.38 812.154 2266.14 733.411 2359.63L651.738 2456.61C629.245 2483.32 595.294 2495.61 560.916 2489.48C526.542 2483.35 498.929 2460.09 487.048 2427.26L443.899 2308.04C402.297 2193.1 301.703 2108.37 181.359 2086.93L56.5364 2064.68C22.162 2058.56 -5.45053 2035.3 -17.3318 2002.47C-29.213 1969.64 -22.8844 1934.09 -0.391232 1907.38L81.2818 1810.4C160.025 1716.91 183.099 1587.42 141.498 1472.48L98.3483 1353.26C86.467 1320.43 92.805 1284.88 115.289 1258.18C137.782 1231.47 171.733 1219.18 206.11 1225.31L330.933 1247.56C451.277 1269 574.946 1224.24 653.689 1130.75L735.362 1033.77C757.855 1007.06 791.805 994.774 826.183 1000.91C860.558 1007.03 888.17 1030.29 900.051 1063.12L943.201 1182.34L942.45 1182.62L943.201 1182.34C984.803 1297.28 1085.4 1382.01 1205.74 1403.46L1330.56 1425.7C1364.94 1431.82 1392.55 1455.08 1404.43 1487.92C1416.31 1520.75 1409.98 1556.29 1387.49 1583L1305.82 1679.98C1227.07 1773.47 1204 1902.96 1245.6 2017.9L1288.75 2137.12C1300.63 2169.95 1294.3 2205.5 1271.81 2232.21C1260.94 2245.11 1247.38 2254.66 1232.41 2260.37ZM872.987 2258.58C874.855 2257.86 876.722 2257.17 878.601 2256.49C935.444 2235.92 996.939 2230.65 1056.45 2241.25L1181.28 2263.49C1215.09 2269.52 1248.48 2257.44 1270.59 2231.17C1292.71 2204.91 1298.94 2169.95 1287.26 2137.66L1244.11 2018.44C1223.54 1961.6 1218.27 1900.1 1228.87 1840.59C1239.47 1781.08 1265.66 1725.18 1304.6 1678.95L1386.27 1581.97C1408.39 1555.7 1414.62 1520.74 1402.94 1488.45C1391.25 1456.17 1364.09 1433.29 1330.28 1427.26L1205.46 1405.02C1145.95 1394.42 1090.06 1368.23 1043.82 1329.29C997.58 1290.35 962.271 1239.73 941.705 1182.88L898.555 1063.66C886.872 1031.37 859.706 1008.5 825.902 1002.47C792.098 996.439 758.703 1008.53 736.586 1034.79L654.913 1131.77C617.263 1176.48 568.682 1210.97 514.122 1231.8C512.254 1232.52 510.388 1233.21 508.508 1233.89C451.669 1254.47 390.17 1259.73 330.656 1249.13L205.833 1226.88C172.029 1220.85 138.633 1232.94 116.517 1259.21C94.4003 1285.47 88.17 1320.43 99.8537 1352.72L143.003 1471.94C163.579 1528.78 168.839 1590.28 158.239 1649.79C147.635 1709.3 121.449 1765.19 82.5098 1811.43L0.836835 1908.41C-21.2797 1934.68 -27.5101 1969.64 -15.8264 2001.92C-4.14263 2034.21 23.0229 2057.09 56.8268 2063.12L181.649 2085.36C241.155 2095.96 297.051 2122.15 343.29 2161.09C389.529 2200.03 424.838 2250.65 445.404 2307.5L488.554 2426.72C500.237 2459 527.403 2481.88 561.207 2487.91C595.02 2493.94 628.406 2481.85 650.523 2455.59L732.196 2358.61C769.846 2313.9 818.428 2279.41 872.987 2258.58Z" fill="#ED1C24" fill-opacity="0.2"/>
<path d="M1241.3 2285.31C1224.27 2291.81 1205.48 2293.52 1186.65 2289.82L1058.38 2264.64C934.714 2240.37 806.426 2284.28 723.568 2379.25L637.637 2477.74C613.974 2504.86 578.767 2516.91 543.462 2509.98C508.147 2503.05 480.106 2478.58 468.458 2444.54L426.127 2320.87C385.316 2201.64 283.139 2112.49 159.47 2088.22L31.2045 2063.04C-4.10987 2056.11 -32.1508 2031.64 -43.7993 1997.6C-55.4514 1963.54 -48.281 1927.04 -24.6281 1899.92L61.3033 1801.42C144.152 1706.45 170.273 1573.4 129.462 1454.16L87.1308 1330.5C75.4787 1296.44 82.649 1259.93 106.302 1232.81C129.959 1205.7 165.163 1193.64 200.477 1200.57L328.743 1225.75C452.412 1250.02 580.709 1206.11 663.558 1111.15L749.489 1012.65C773.142 985.533 808.359 973.48 843.664 980.414C878.979 987.345 907.02 1011.81 918.668 1045.86L960.999 1169.52C1001.81 1288.76 1103.99 1377.91 1227.66 1402.18L1355.92 1427.35C1391.24 1434.29 1419.28 1458.75 1430.93 1492.8C1442.58 1526.85 1435.41 1563.36 1411.75 1590.48L1325.82 1688.98C1242.97 1783.94 1216.85 1917 1257.66 2036.23L1300 2159.9C1311.64 2193.94 1304.48 2230.46 1280.82 2257.58C1269.78 2270.23 1256.22 2279.62 1241.3 2285.31ZM863.485 2279.78C867.334 2278.31 871.198 2276.91 875.101 2275.58C934.049 2255.4 997.535 2251.08 1058.69 2263.08L1186.95 2288.26C1221.7 2295.07 1256.34 2283.22 1279.62 2256.54C1302.91 2229.86 1309.96 2193.92 1298.49 2160.42L1256.16 2036.75C1235.98 1977.8 1231.66 1914.31 1243.66 1853.17C1255.66 1792.03 1283.66 1734.88 1324.63 1687.93L1410.56 1589.44C1433.85 1562.76 1440.9 1526.82 1429.43 1493.31C1417.97 1459.81 1390.37 1435.74 1355.62 1428.92L1227.35 1403.74C1166.21 1391.73 1109.07 1363.74 1062.12 1322.77C1015.16 1281.8 979.674 1228.98 959.502 1170.03L960.26 1169.77L959.502 1170.03L917.171 1046.36C905.707 1012.86 878.107 988.791 843.357 981.966C808.608 975.141 773.962 987.008 750.686 1013.68L664.754 1112.18C623.785 1159.13 570.961 1194.63 512.018 1214.79C453.06 1234.98 389.584 1239.29 328.433 1227.3L200.167 1202.12C165.417 1195.29 130.781 1207.16 107.495 1233.84C84.2092 1260.52 77.163 1296.45 88.6269 1329.96L130.958 1453.62C151.144 1512.58 155.457 1576.06 143.458 1637.21C131.459 1698.36 103.456 1755.49 62.4868 1802.44L-23.4446 1900.94C-46.7303 1927.62 -53.7765 1963.56 -42.3126 1997.06C-30.8487 2030.57 -3.2583 2054.64 31.4913 2061.46L159.757 2086.64C220.899 2098.64 278.044 2126.64 324.994 2167.61C371.944 2208.58 407.435 2261.4 427.608 2320.35L469.939 2444.02C481.403 2477.52 508.993 2501.59 543.752 2508.41C578.498 2515.23 613.138 2503.38 636.424 2476.7L722.355 2378.2C760.621 2334.35 809.206 2300.5 863.485 2279.78Z" fill="#ED1C24" fill-opacity="0.2"/>
<path d="M1250.08 2311.15C1231.97 2318.06 1211.96 2319.7 1192.03 2315.43L1060.26 2287.17C933.218 2259.92 800.183 2302.89 713.053 2399.28L622.701 2499.26C611.503 2511.65 597.943 2520.85 583.116 2526.51C565.011 2533.43 544.998 2535.06 525.064 2530.79C488.795 2523.01 460.339 2497.29 448.941 2462L407.531 2333.76C367.603 2210.11 263.881 2116.38 136.837 2089.13L5.07449 2060.88C-31.1941 2053.1 -59.6498 2027.38 -71.0482 1992.08C-82.4466 1956.79 -74.4043 1919.28 -49.5342 1891.76L40.8184 1791.78C127.935 1695.38 157.249 1558.68 117.324 1435.04L75.9145 1306.81C64.5161 1271.51 72.5583 1234.01 97.4285 1206.49C122.299 1178.97 158.797 1167.18 195.065 1174.96L326.828 1203.21C453.872 1230.46 586.908 1187.5 674.034 1091.09L764.386 991.113C789.257 963.592 825.755 951.81 862.023 959.586C898.292 967.361 926.747 993.084 938.146 1028.38L979.556 1156.61C1019.48 1280.26 1123.21 1374 1250.25 1401.25L1382 1429.5C1418.27 1437.28 1446.73 1463 1458.13 1498.3C1469.52 1533.59 1461.48 1571.1 1436.61 1598.62L1346.26 1698.6C1259.14 1795 1229.83 1931.7 1269.75 2055.34L1311.16 2183.57C1322.56 2218.87 1314.52 2256.37 1289.65 2283.89C1278.46 2296.28 1264.9 2305.49 1250.08 2311.15ZM853.123 2301.54C859.074 2299.26 865.076 2297.15 871.145 2295.19C932.274 2275.45 997.781 2272.14 1060.59 2285.61L1192.35 2313.87C1228.05 2321.53 1263.98 2309.92 1288.47 2282.83C1312.96 2255.74 1320.88 2218.83 1309.65 2184.07L1268.24 2055.84C1248.5 1994.71 1245.19 1929.2 1258.67 1866.4C1272.14 1803.59 1302.02 1745.2 1345.09 1697.54L1435.45 1597.55C1459.93 1570.46 1467.85 1533.55 1456.62 1498.8C1445.41 1464.05 1417.39 1438.73 1381.68 1431.07L1249.92 1402.82C1187.11 1389.34 1128.72 1359.46 1081.06 1316.39C1033.4 1273.31 997.773 1218.24 978.036 1157.12L978.798 1156.87L978.036 1157.12L936.626 1028.89C925.407 994.142 897.392 968.818 861.682 961.161C825.982 953.5 790.05 965.109 765.56 992.195L675.235 1092.17C636.441 1135.08 587.91 1168.26 533.986 1188.84C528.035 1191.11 522.033 1193.22 515.964 1195.19C454.835 1214.93 389.328 1218.24 326.521 1204.76L194.758 1176.51C159.058 1168.85 123.126 1180.46 98.6356 1207.55C74.1492 1234.64 66.2333 1271.55 77.4564 1306.3L118.866 1434.54C138.607 1495.67 141.919 1561.18 128.444 1623.98C114.968 1686.79 85.0879 1745.18 42.0163 1792.84L-48.3364 1892.82C-72.8228 1919.92 -80.7387 1956.83 -69.5156 1991.58C-58.296 2026.33 -30.2815 2051.65 5.42806 2059.31L137.191 2087.56C199.997 2101.04 258.385 2130.92 306.052 2173.99C353.709 2217.06 389.332 2272.13 409.073 2333.26L450.483 2461.49C461.706 2496.25 489.717 2521.56 525.417 2529.22C561.118 2536.88 597.05 2525.27 621.54 2498.19L711.893 2398.21C750.664 2355.28 799.208 2322.12 853.123 2301.54Z" fill="#ED1C24" fill-opacity="0.2"/>
<path d="M1258.7 2337.92C1239.47 2345.27 1218.19 2346.82 1197.11 2341.92L1061.8 2310.41C931.329 2280.04 793.411 2321.94 701.873 2419.74L606.945 2521.16C580.823 2549.08 542.992 2560.56 505.761 2551.89C468.53 2543.22 439.667 2516.21 428.553 2479.64L388.179 2346.72C349.244 2218.54 244.013 2120.05 113.539 2089.68L-21.7617 2058.18C-58.993 2049.51 -87.8555 2022.5 -98.9736 1985.92C-110.082 1949.33 -101.124 1910.84 -75.0011 1882.92L19.9264 1781.5C111.465 1683.7 144.143 1543.31 105.217 1415.13L64.843 1282.21C53.7342 1245.63 62.6929 1207.13 88.8155 1179.22C114.938 1151.3 152.769 1139.81 190 1148.49L325.301 1179.98C455.775 1210.35 593.687 1168.47 685.231 1070.66L780.158 969.228C806.281 941.316 844.111 929.827 881.343 938.498C918.574 947.17 947.436 974.182 958.551 1010.75L998.925 1143.67C1037.86 1271.85 1143.09 1370.34 1273.56 1400.72L1408.87 1432.22C1446.1 1440.89 1474.96 1467.9 1486.08 1504.48C1497.19 1541.07 1488.23 1579.56 1462.11 1607.48L1367.18 1708.9C1275.64 1806.71 1242.96 1947.09 1281.89 2075.28L1322.27 2208.2C1333.38 2244.79 1324.42 2283.28 1298.3 2311.19C1286.96 2323.28 1273.43 2332.3 1258.7 2337.92ZM841.867 2323.84C850.041 2320.72 858.323 2317.88 866.728 2315.33C930.091 2296.09 997.667 2293.85 1062.16 2308.86L1197.46 2340.36C1234.14 2348.9 1271.39 2337.57 1297.12 2310.09C1322.85 2282.6 1331.68 2244.68 1320.74 2208.65L1280.36 2075.72C1261.12 2012.36 1258.88 1944.79 1273.89 1880.29C1288.91 1815.79 1320.76 1756.15 1366.01 1707.8L1460.94 1606.37C1486.66 1578.88 1495.49 1540.97 1484.55 1504.93C1473.61 1468.9 1445.18 1442.29 1408.5 1433.76L1273.2 1402.27C1208.71 1387.25 1149.06 1355.4 1100.71 1310.15C1052.36 1264.9 1016.64 1207.49 997.396 1144.13L998.156 1143.9L997.396 1144.13L957.023 1011.21C946.083 975.18 917.653 948.57 880.978 940.04C844.3 931.5 807.048 942.821 781.319 970.305L686.391 1071.73C647.138 1113.67 598.737 1146.12 545.233 1166.54C537.059 1169.67 528.777 1172.51 520.372 1175.05C457.009 1194.3 389.433 1196.53 324.937 1181.52L189.636 1150.03C152.958 1141.49 115.705 1152.81 89.9758 1180.29C64.2499 1207.79 55.4248 1245.71 66.364 1281.74L106.738 1414.66C125.983 1478.02 128.222 1545.6 113.208 1610.09C98.1943 1674.59 66.3419 1734.23 21.0903 1782.58L-73.8371 1884.01C-99.5631 1911.5 -108.392 1949.42 -97.449 1985.45C-86.5098 2021.48 -58.0791 2048.09 -21.4046 2056.62L113.897 2088.12C178.393 2103.13 238.036 2134.98 286.386 2180.23C334.735 2225.48 370.459 2282.89 389.704 2346.25L430.081 2479.18C441.02 2515.21 469.451 2541.82 506.125 2550.35C542.803 2558.89 580.055 2547.57 605.785 2520.09L700.712 2418.66C739.963 2376.71 788.372 2344.26 841.867 2323.84Z" fill="#ED1C24" fill-opacity="0.2"/>
<path d="M1267.16 2365.66C1246.75 2373.45 1224.14 2374.91 1201.87 2369.31L1062.97 2334.4C929.012 2300.75 786.099 2341.45 689.97 2440.62L590.296 2543.47C562.873 2571.76 523.686 2582.92 485.468 2573.32C447.251 2563.72 417.992 2535.36 407.206 2497.46L367.981 2359.73C330.155 2226.89 223.441 2123.47 89.4961 2089.81L-49.4081 2054.91C-87.6257 2045.31 -116.885 2016.95 -127.67 1979.05C-138.465 1941.16 -128.537 1901.64 -101.105 1873.34L-1.43021 1770.5C94.6893 1671.33 130.907 1527.2 93.0814 1394.36L53.8555 1256.63C43.0608 1218.73 52.9884 1179.21 80.4208 1150.92C107.844 1122.63 147.03 1111.47 185.248 1121.07L324.152 1155.97C458.097 1189.63 601.019 1148.93 697.148 1049.75L796.823 946.907C824.246 918.615 863.433 907.455 901.65 917.055C939.868 926.656 969.127 955.015 979.912 992.911L1019.14 1130.65C1056.96 1263.48 1163.68 1366.9 1297.62 1400.57L1436.53 1435.47C1474.74 1445.07 1504 1473.43 1514.79 1511.32C1525.58 1549.22 1515.66 1588.74 1488.22 1617.03L1388.55 1719.88C1292.43 1819.05 1256.21 1963.18 1294.04 2096.01L1333.26 2233.75C1344.06 2271.64 1334.13 2311.16 1306.7 2339.46C1295.26 2351.26 1281.78 2360.08 1267.16 2365.66ZM829.669 2346.7C840.198 2342.68 850.92 2339.11 861.811 2336.02C927.461 2317.32 997.157 2316.23 1063.36 2332.86L1202.27 2367.77C1239.93 2377.23 1278.54 2366.23 1305.56 2338.35C1332.58 2310.47 1342.37 2271.53 1331.73 2234.19L1292.5 2096.45C1273.81 2030.8 1272.72 1961.1 1289.35 1894.9C1305.98 1828.69 1339.89 1767.79 1387.4 1718.77L1487.07 1615.93C1514.1 1588.05 1523.88 1549.11 1513.24 1511.76C1502.61 1474.42 1473.78 1446.48 1436.12 1437.02L1297.22 1402.11C1231.01 1385.48 1170.11 1351.57 1121.09 1304.06C1072.07 1256.55 1036.29 1196.74 1017.59 1131.09L1018.36 1130.87L1017.59 1131.09L978.367 993.351C967.729 956.009 938.906 928.061 901.245 918.601C863.584 909.142 824.976 920.135 797.953 948.017L698.278 1050.86C650.767 1099.88 590.957 1135.67 525.307 1154.36C459.657 1173.05 389.962 1174.14 323.756 1157.51L184.852 1122.61C147.201 1113.15 108.583 1124.14 81.5603 1152.02C54.5375 1179.91 44.7528 1218.85 55.3908 1256.19L94.6074 1393.93C113.302 1459.58 114.391 1529.28 97.7607 1595.48C81.1301 1661.69 47.2206 1722.59 -0.290661 1771.61L-99.9652 1874.45C-126.988 1902.33 -136.773 1941.27 -126.135 1978.61C-115.497 2015.96 -86.6731 2043.9 -49.0122 2053.36L89.8919 2088.27C156.098 2104.9 216.997 2138.81 266.016 2186.32C315.036 2233.83 350.821 2293.64 369.516 2359.29L408.745 2497.04C419.383 2534.38 448.207 2562.33 485.868 2571.79C523.529 2581.25 562.137 2570.25 589.16 2542.37L688.834 2439.53C728.462 2398.62 776.661 2366.94 829.669 2346.7Z" fill="#ED1C24" fill-opacity="0.2"/>
<path d="M1275.45 2394.37C1253.79 2402.64 1229.8 2403.98 1206.29 2397.63L1063.75 2359.16C926.272 2322.06 778.213 2361.44 677.342 2461.94L572.751 2566.15C561.226 2577.62 547.809 2586.25 533.347 2591.77C511.691 2600.03 487.699 2601.37 464.191 2595.03C424.979 2584.45 395.337 2554.69 384.902 2515.44L346.944 2372.76C310.339 2235.15 202.204 2126.61 64.7315 2089.51L-77.8174 2051.03C-117.03 2040.45 -146.672 2010.7 -157.107 1971.45C-167.542 1932.2 -156.605 1891.65 -127.833 1863L-23.2414 1758.79C77.6257 1658.28 117.554 1510.36 80.9485 1372.76L42.9911 1230.07C32.556 1190.82 43.4934 1150.28 72.265 1121.62C101.033 1092.95 141.622 1082.16 180.825 1092.74L323.374 1131.22C460.85 1168.33 608.909 1128.94 709.776 1028.44L814.368 924.227C843.136 895.562 883.725 884.765 922.928 895.349C962.14 905.929 991.782 935.684 1002.22 974.933L1040.17 1117.62L1039.41 1117.83L1040.17 1117.62C1076.78 1255.22 1184.91 1363.76 1322.39 1400.86L1464.94 1439.34C1504.15 1449.92 1533.79 1479.68 1544.23 1518.93C1554.67 1558.17 1543.72 1598.72 1514.96 1627.39L1410.36 1731.6C1309.5 1832.1 1269.57 1980.02 1306.17 2117.62L1344.13 2260.31C1354.58 2299.56 1343.63 2340.11 1314.86 2368.76C1303.33 2380.24 1289.91 2388.85 1275.45 2394.37ZM816.477 2370.13C829.509 2365.15 842.821 2360.85 856.355 2357.25C924.358 2339.16 996.22 2339.29 1064.16 2357.63L1206.71 2396.11C1245.36 2406.54 1285.37 2395.9 1313.73 2367.64C1342.1 2339.39 1352.88 2299.41 1342.59 2260.73L1304.63 2118.04C1286.55 2050.04 1286.68 1978.18 1305.01 1910.24C1323.35 1842.3 1359.39 1780.14 1409.24 1730.47L1513.83 1626.27C1542.19 1598 1552.98 1558.03 1542.68 1519.34C1532.39 1480.65 1503.17 1451.32 1464.52 1440.89L1321.97 1402.41C1254.04 1384.08 1191.87 1348.04 1142.21 1298.18C1092.54 1248.33 1056.72 1186.04 1038.63 1118.04L1000.67 975.351C990.378 936.659 961.165 907.329 922.513 896.899C883.861 886.469 843.854 897.107 815.487 925.363L710.895 1029.57C661.041 1079.24 598.747 1115.05 530.748 1133.14C462.745 1151.23 390.884 1151.1 322.946 1132.76L180.397 1094.29C141.745 1083.86 101.738 1094.49 73.3707 1122.75C45.0029 1151.01 34.2213 1190.98 44.515 1229.66L82.4722 1372.35C100.556 1440.35 100.428 1512.21 82.0927 1580.15C63.7576 1648.09 27.7184 1710.25 -22.1357 1759.92L-126.727 1864.13C-155.095 1892.38 -165.877 1932.36 -155.583 1971.04C-145.289 2009.72 -116.074 2039.06 -77.4216 2049.49L65.1273 2087.97C133.065 2106.31 195.227 2142.34 244.895 2192.2C294.562 2242.05 330.375 2304.35 348.468 2372.35L386.425 2515.03C396.713 2553.73 425.935 2583.05 464.587 2593.48C503.239 2603.91 543.246 2593.28 571.613 2565.02L676.205 2460.81C716.134 2421.03 764.048 2390.14 816.477 2370.13Z" fill="#ED1C24" fill-opacity="0.2"/>
<path d="M1283.53 2424.11C1260.57 2432.87 1235.12 2434.07 1210.33 2426.92L1064.1 2384.69C923.054 2343.96 769.71 2381.9 663.926 2483.69L554.241 2589.22C542.664 2600.36 529.332 2608.76 515.029 2614.22C492.075 2622.98 466.618 2624.18 441.837 2617.03C401.622 2605.42 371.611 2574.22 361.559 2533.59L325.005 2385.83C289.749 2243.32 180.229 2129.5 39.1882 2088.77L-107.051 2046.55C-147.267 2034.94 -177.278 2003.74 -187.329 1963.11C-197.384 1922.47 -185.377 1880.89 -155.212 1851.87L-45.522 1746.33C60.272 1644.54 104.087 1492.78 68.8309 1350.27L32.2763 1202.51C22.2215 1161.88 34.2283 1120.29 64.3929 1091.27C94.5574 1062.26 136.581 1051.85 176.797 1063.46L323.036 1105.69C464.077 1146.42 617.421 1108.48 723.206 1006.7L832.896 901.151C863.057 872.125 905.084 861.732 945.3 873.342C985.516 884.952 1015.53 916.15 1025.58 956.777L1062.13 1104.54C1097.39 1247.04 1206.91 1360.87 1347.95 1401.59L1494.2 1443.82C1534.41 1455.43 1564.42 1486.63 1574.48 1527.25C1584.53 1567.88 1572.52 1609.48 1542.36 1638.49L1432.66 1744.03C1326.88 1845.81 1283.06 1997.57 1318.31 2140.08L1354.87 2287.84C1364.92 2328.48 1352.91 2370.07 1322.75 2399.08C1311.16 2410.24 1297.83 2418.65 1283.53 2424.11ZM802.254 2394.11C817.93 2388.12 833.989 2383.08 850.359 2379.03C920.777 2361.61 994.838 2363.04 1064.53 2383.15L1210.77 2425.38C1250.43 2436.84 1291.87 2426.59 1321.62 2397.96C1351.36 2369.34 1363.21 2328.33 1353.29 2288.25L1316.73 2140.49C1299.31 2070.07 1300.74 1996.01 1320.86 1926.33C1340.99 1856.63 1379.25 1793.2 1431.52 1742.91L1541.21 1637.37C1570.96 1608.75 1582.8 1567.74 1572.89 1527.66C1562.97 1487.58 1533.37 1456.82 1493.71 1445.37L1347.46 1403.14C1277.77 1383.01 1214.34 1344.75 1164.05 1292.48C1113.76 1240.21 1077.96 1175.35 1060.54 1104.93L1061.31 1104.74L1060.54 1104.93L1023.98 957.172C1014.07 917.093 984.47 886.336 944.806 874.879C905.141 863.423 863.703 873.677 833.955 902.299L724.265 1007.84C671.984 1058.14 607.136 1093.93 536.718 1111.35C466.3 1128.77 392.24 1127.34 322.551 1107.23L176.312 1065C136.647 1053.54 95.2092 1063.79 65.4613 1092.42C35.7135 1121.04 23.8716 1162.05 33.7885 1202.13L70.3433 1349.89C87.7644 1420.31 86.3351 1494.37 66.208 1564.06C46.081 1633.75 7.81719 1697.18 -44.4537 1747.47L-154.135 1853.01C-183.883 1881.63 -195.724 1922.64 -185.807 1962.72C-175.891 2002.8 -146.294 2033.56 -106.63 2045.01L39.6098 2087.24C109.302 2107.37 172.731 2145.63 223.021 2197.91C273.312 2250.18 309.109 2315.03 326.53 2385.45L363.084 2533.21C373.001 2573.29 402.598 2604.05 442.262 2615.5C481.927 2626.96 523.365 2616.71 553.113 2588.08L662.794 2482.54C702.944 2443.93 750.479 2413.87 802.254 2394.11Z" fill="#ED1C24" fill-opacity="0.2"/>
<path d="M1291.37 2454.87C1267.06 2464.16 1240.07 2465.19 1213.98 2457.17L1064 2411.02C919.339 2366.5 760.589 2402.84 649.711 2505.86L534.745 2612.67C503.139 2642.04 459.641 2652 418.413 2639.31C377.176 2626.62 346.81 2593.93 337.175 2551.87L302.153 2398.9C268.372 2251.37 157.527 2132.05 12.8673 2087.54L-137.117 2041.39C-178.354 2028.7 -208.72 1996.01 -218.355 1953.95C-227.99 1911.89 -214.863 1869.26 -183.252 1839.88L-68.2858 1733.07C42.5923 1630.05 90.4972 1474.4 56.7154 1326.87L21.6935 1173.9C12.0587 1131.84 25.1853 1089.2 56.7967 1059.82C88.4024 1030.46 131.892 1020.5 173.129 1033.19L323.113 1079.34C467.773 1123.85 626.522 1087.51 737.4 984.493L852.367 877.684C883.972 848.32 927.461 838.364 968.698 851.051C1009.94 863.738 1040.3 896.427 1049.94 938.487L1084.96 1091.46C1118.74 1238.99 1229.58 1358.3 1374.24 1402.82L1524.23 1448.97C1565.47 1461.65 1595.83 1494.34 1605.47 1536.4C1615.1 1578.46 1601.97 1621.1 1570.36 1650.47L1455.4 1757.28C1344.52 1860.3 1296.61 2015.96 1330.4 2163.49L1365.42 2316.46C1375.05 2358.52 1361.93 2401.16 1330.31 2430.53C1318.7 2441.32 1305.49 2449.48 1291.37 2454.87ZM786.951 2418.65C805.43 2411.6 824.407 2405.82 843.79 2401.38C916.683 2384.7 992.989 2387.49 1064.46 2409.49L1214.45 2455.64C1255.13 2468.16 1298.04 2458.33 1329.23 2429.36C1360.41 2400.39 1373.36 2358.31 1363.86 2316.82L1328.84 2163.85C1312.16 2090.96 1314.95 2014.65 1336.95 1943.18C1358.94 1871.7 1399.52 1807.02 1454.31 1756.11L1569.28 1649.31C1600.46 1620.33 1613.41 1578.26 1603.9 1536.76C1594.4 1495.27 1564.44 1463.02 1523.75 1450.5L1373.77 1404.35C1302.29 1382.35 1237.62 1341.77 1186.71 1286.99C1135.81 1232.2 1100.08 1164.71 1083.39 1091.82L1084.17 1091.64L1083.39 1091.82L1048.37 938.848C1038.88 897.355 1008.91 865.101 968.223 852.581C927.531 840.061 884.621 849.881 853.436 878.86L738.47 985.669C698.245 1023.04 651.17 1052.23 600.142 1071.71C581.663 1078.77 562.686 1084.55 543.303 1088.98C470.41 1105.67 394.103 1102.87 322.628 1080.88L172.644 1034.72C131.952 1022.2 89.0462 1032.03 57.8572 1061C26.6718 1089.98 13.7231 1132.05 23.2201 1173.55L58.2419 1326.52C74.9274 1399.41 72.1293 1475.72 50.1354 1547.19C28.1415 1618.67 -12.4394 1683.34 -67.2254 1734.25L-182.192 1841.06C-213.377 1870.04 -226.326 1912.1 -216.819 1953.6C-207.313 1995.1 -177.361 2027.35 -136.67 2039.87L13.3148 2086.02C84.7899 2108.02 149.467 2148.6 200.376 2203.38C251.274 2258.17 287.004 2325.66 303.689 2398.55L338.711 2551.52C348.214 2593.01 378.178 2625.26 418.861 2637.79C459.543 2650.31 502.458 2640.48 533.647 2611.51L648.613 2504.7C688.848 2467.32 735.923 2438.13 786.951 2418.65Z" fill="#ED1C24" fill-opacity="0.2"/>
<path d="M1298.97 2486.71C1273.22 2496.54 1244.63 2497.38 1217.19 2488.41L1063.42 2438.13C915.104 2389.64 750.811 2424.25 634.656 2528.45L514.238 2636.48C481.134 2666.18 436.134 2675.66 393.867 2661.84C351.597 2648.02 320.889 2613.79 311.727 2570.28L278.384 2411.98C246.22 2259.29 134.1 2134.31 -14.2185 2085.82L-167.982 2035.54C-210.252 2021.72 -240.96 1987.49 -250.122 1943.98C-259.285 1900.46 -244.995 1856.75 -211.9 1827.06L-91.4826 1719.02C24.6718 1614.82 76.8453 1455.24 44.6773 1302.54L11.3316 1144.23C2.16918 1100.72 16.4587 1057 49.5535 1027.31C82.6577 997.608 127.658 988.135 169.925 1001.95L323.689 1052.22C472.007 1100.71 636.301 1066.11 752.455 961.907L872.873 853.874C905.977 824.173 950.978 814.7 993.245 828.514C1035.51 842.337 1066.22 876.565 1075.38 920.079L1108.73 1078.38C1140.89 1231.07 1253.01 1356.05 1401.33 1404.54L1555.09 1454.81C1597.36 1468.64 1628.07 1502.86 1637.23 1546.38C1646.4 1589.89 1632.11 1633.6 1599.01 1663.3L1478.59 1771.33C1362.44 1875.53 1310.27 2035.12 1342.43 2187.82L1375.78 2346.13C1384.94 2389.64 1370.65 2433.35 1337.56 2463.05C1325.95 2473.47 1312.88 2481.4 1298.97 2486.71ZM770.513 2443.75C791.945 2435.57 814.042 2429.05 836.612 2424.3C912.046 2408.41 990.647 2412.68 1063.92 2436.63L1217.68 2486.9C1259.4 2500.54 1303.83 2491.19 1336.49 2461.87C1369.16 2432.56 1383.26 2389.41 1374.22 2346.47L1340.88 2188.17C1324.99 2112.73 1329.25 2034.13 1353.21 1960.86C1377.16 1887.59 1420.16 1821.65 1477.54 1770.17L1597.96 1662.14C1630.63 1632.83 1644.73 1589.68 1635.69 1546.73C1626.65 1503.78 1596.33 1469.99 1554.61 1456.36L1400.85 1406.07C1327.57 1382.12 1261.63 1339.12 1210.16 1281.74C1158.68 1224.35 1123.08 1154.15 1107.19 1078.72L1107.97 1078.55L1107.19 1078.72L1073.85 920.421C1064.8 877.471 1034.49 843.682 992.769 830.044C951.051 816.406 906.637 825.762 873.963 855.074L753.545 963.108C696.163 1014.59 625.954 1050.19 550.533 1066.09C475.099 1081.98 396.498 1077.71 323.226 1053.76L169.462 1003.48C127.745 989.846 83.3307 999.203 50.6562 1028.51C17.9817 1057.83 3.883 1100.97 12.9262 1143.92L46.2685 1302.22C62.158 1377.65 57.8915 1456.25 33.9396 1529.53C9.98764 1602.8 -33.0108 1668.74 -90.3965 1720.21L-210.814 1828.25C-243.489 1857.56 -257.591 1900.7 -248.544 1943.65C-239.501 1986.6 -209.186 2020.39 -167.468 2034.03L-13.7042 2084.31C59.5674 2108.26 125.51 2151.26 176.983 2208.64C228.465 2266.02 264.067 2336.23 279.963 2411.65L313.305 2569.95C322.348 2612.9 352.663 2646.69 394.381 2660.33C436.099 2673.97 480.517 2664.62 513.188 2635.3L633.605 2527.27C673.804 2491.2 720.317 2462.92 770.513 2443.75Z" fill="#ED1C24" fill-opacity="0.2"/>
<path d="M1306.3 2519.64C1279.05 2530.04 1248.78 2530.68 1219.94 2520.69L1062.35 2466.11C910.331 2413.45 740.352 2446.17 618.738 2551.49L492.669 2660.68C458.024 2690.69 411.479 2699.65 368.158 2684.64C324.849 2669.64 293.82 2633.81 285.153 2588.79L253.626 2425.02C223.223 2267.04 109.888 2136.19 -42.1294 2083.53L-199.721 2028.95C-243.03 2013.95 -274.059 1978.12 -282.726 1933.1C-291.389 1888.09 -275.874 1843.3 -241.229 1813.29L-115.16 1704.11C6.45369 1598.78 63.0993 1435.21 32.6955 1277.24L1.16888 1113.46C-7.4944 1068.45 8.02118 1023.66 42.6661 993.651C77.311 963.641 123.856 954.681 167.178 969.686L324.769 1024.27C476.787 1076.92 646.767 1044.21 768.381 938.883L894.449 829.698C929.094 799.688 975.64 790.728 1018.95 805.737C1062.26 820.737 1093.3 856.563 1101.97 901.583L1133.49 1065.36C1163.9 1223.33 1277.23 1354.19 1429.25 1406.84L1586.84 1461.42C1630.15 1476.42 1661.19 1512.25 1669.85 1557.26C1678.51 1602.27 1663 1647.06 1628.35 1677.07L1502.28 1786.26C1380.67 1891.58 1324.02 2055.15 1354.43 2213.12L1385.96 2376.9C1394.62 2421.91 1379.1 2466.7 1344.46 2496.71C1332.86 2506.75 1319.96 2514.42 1306.3 2519.64ZM752.897 2469.41C777.449 2460.04 802.842 2452.79 828.797 2447.79C906.832 2432.77 987.774 2438.57 1062.86 2464.59L1220.46 2519.18C1263.22 2533.99 1309.19 2525.14 1343.4 2495.51C1377.61 2465.88 1392.94 2421.65 1384.38 2377.2L1352.85 2213.43C1337.83 2135.39 1343.63 2054.45 1369.65 1979.36C1395.67 1904.27 1441.16 1837.08 1501.24 1785.05L1627.3 1675.87C1661.52 1646.23 1676.84 1602.01 1668.28 1557.56C1659.73 1513.12 1629.09 1477.74 1586.32 1462.92L1428.73 1408.34C1353.63 1382.33 1286.45 1336.83 1234.42 1276.76C1182.39 1216.68 1146.95 1143.68 1131.93 1065.64L1132.72 1065.49L1131.93 1065.64L1100.4 901.868C1091.85 857.426 1061.21 822.048 1018.44 807.228C975.674 792.416 929.716 801.26 895.495 830.894L769.426 940.079C729.334 974.802 683.476 1002.14 634.224 1020.94C609.672 1030.31 584.279 1037.57 558.324 1042.56C480.289 1057.58 399.346 1051.78 324.257 1025.76L166.665 971.177C123.9 956.366 77.9419 965.209 43.7208 994.843C9.50899 1024.47 -5.81578 1068.7 2.74123 1113.15L34.2679 1276.93C49.288 1354.96 43.4858 1435.9 17.466 1510.99C-8.54093 1586.09 -54.0403 1653.27 -114.115 1705.3L-240.184 1814.49C-274.395 1844.12 -289.72 1888.34 -281.163 1932.79C-272.61 1977.24 -241.966 2012.61 -199.198 2027.43L-41.6058 2082.02C33.4887 2108.02 100.675 2153.52 152.703 2213.6C204.732 2273.67 240.166 2346.66 255.189 2424.71L286.716 2588.49C295.269 2632.93 325.912 2668.3 368.681 2683.13C411.446 2697.94 457.405 2689.09 491.626 2659.46L617.695 2550.27C657.778 2515.55 703.635 2488.22 752.897 2469.41Z" fill="#ED1C24" fill-opacity="0.2"/>
<path d="M1313.32 2553.68C1284.51 2564.68 1252.47 2565.08 1222.2 2553.99L1060.74 2494.89C904.981 2437.88 729.178 2468.55 601.922 2574.93L470.01 2685.21C433.763 2715.51 385.633 2723.91 341.262 2707.67C296.89 2691.43 265.562 2653.95 257.437 2607.4L227.892 2438.02C199.388 2274.62 84.9259 2137.7 -70.8299 2080.69L-232.288 2021.59C-276.659 2005.35 -307.988 1967.87 -316.112 1921.32C-324.227 1874.78 -307.435 1828.9 -271.189 1798.6L-139.277 1688.32C-12.0207 1581.94 49.3203 1414.35 20.8168 1250.95L-8.72878 1081.56C-16.844 1035.02 -0.0520791 989.141 36.1946 958.84C72.4413 928.539 120.571 920.141 164.943 936.383L326.4 995.484C482.16 1052.5 657.963 1021.83 785.219 915.446L917.131 805.165C953.378 774.865 1001.51 766.466 1045.88 782.709C1090.25 798.951 1121.58 836.433 1129.7 882.976L1159.25 1052.36L1158.47 1052.5L1159.25 1052.36C1187.75 1215.76 1302.22 1352.67 1457.97 1409.69L1619.43 1468.79C1663.8 1485.03 1695.13 1522.51 1703.25 1569.05C1711.38 1615.6 1694.58 1661.48 1658.33 1691.78L1526.42 1802.06C1399.16 1908.44 1337.82 2076.03 1366.32 2239.42L1395.87 2408.8C1403.99 2455.35 1387.19 2501.23 1350.94 2531.53C1339.43 2541.15 1326.72 2548.57 1313.32 2553.68ZM734.039 2495.63C761.888 2485 790.782 2477.02 820.326 2471.87C901.032 2457.79 984.346 2465.23 1061.28 2493.39L1222.74 2552.49C1252.65 2563.44 1284.29 2563.05 1312.75 2552.19C1326 2547.13 1338.54 2539.82 1349.91 2530.31C1385.72 2500.38 1402.3 2455.05 1394.28 2409.08L1364.73 2239.7C1350.65 2158.99 1358.1 2075.68 1386.26 1998.74C1414.42 1921.81 1462.53 1853.37 1525.38 1800.83L1657.29 1690.55C1693.1 1660.62 1709.69 1615.29 1701.66 1569.32C1693.64 1523.35 1662.69 1486.32 1618.86 1470.28L1457.4 1411.17C1380.47 1383.01 1312.03 1334.91 1259.49 1272.05C1206.95 1209.2 1171.73 1133.32 1157.65 1052.62L1128.1 883.235C1120.09 837.26 1089.12 800.237 1045.3 784.193C1001.48 768.148 953.936 776.439 918.13 806.379L786.217 916.66C723.364 969.203 647.485 1004.42 566.785 1018.49C486.08 1032.57 402.765 1025.13 325.831 996.965L164.373 937.864C120.548 921.819 72.9996 930.114 37.2025 960.05C1.39251 989.981 -15.192 1035.31 -7.1679 1081.28L22.3775 1250.66C36.4584 1331.37 29.014 1414.68 0.851523 1491.61C-27.311 1568.55 -75.4152 1636.99 -138.269 1689.53L-270.181 1799.81C-305.991 1829.74 -322.575 1875.07 -314.551 1921.04C-306.527 1967.01 -275.576 2004.04 -231.751 2020.08L-70.2935 2079.18C6.64076 2107.34 75.0788 2155.45 127.622 2218.3C180.165 2281.16 215.385 2357.03 229.466 2437.74L259.011 2607.12C267.035 2653.09 297.986 2690.12 341.811 2706.16C385.636 2722.21 433.185 2713.91 468.982 2683.98L600.894 2573.7C640.728 2540.4 685.813 2514.05 734.039 2495.63Z" fill="#ED1C24" fill-opacity="0.2"/>
<path d="M1320 2588.88C1289.54 2600.52 1255.67 2600.63 1223.91 2588.37L1058.54 2524.55C899.011 2462.98 717.231 2491.42 584.146 2598.8L446.191 2710.1C434.793 2719.3 422.306 2726.44 409.202 2731.45C378.737 2743.08 344.871 2743.2 313.11 2730.94C267.677 2713.4 236.059 2674.21 228.526 2626.1L201.114 2450.98C174.667 2282.03 59.1468 2138.84 -100.389 2077.26L-265.759 2013.43C-311.192 1995.89 -342.81 1956.7 -350.343 1908.6C-357.877 1860.49 -339.743 1813.5 -301.837 1782.92L-163.882 1671.62C-30.7939 1564.25 35.4587 1392.59 9.01506 1223.65L-18.3968 1048.53C-25.9209 1000.42 -7.79654 953.434 30.1093 922.853C68.0152 892.273 117.76 884.488 163.194 902.027L328.564 965.853C488.096 1027.42 669.876 998.979 802.97 891.597L940.928 780.302C978.834 749.721 1028.58 741.937 1074.01 759.476C1119.45 777.015 1151.06 816.206 1158.6 864.313L1186.01 1039.43C1212.46 1208.38 1327.98 1351.58 1487.51 1413.16L1652.88 1476.98C1698.32 1494.52 1729.93 1533.71 1737.47 1581.82C1744.99 1629.93 1726.87 1676.91 1688.96 1707.5L1551.01 1818.8C1417.92 1926.17 1351.66 2097.83 1378.11 2266.77L1405.52 2441.89C1413.04 2490 1394.92 2536.98 1357.01 2567.56C1345.6 2576.74 1333.11 2583.88 1320 2588.88ZM713.888 2522.42C745.213 2510.46 777.81 2501.76 811.153 2496.54C894.593 2483.48 980.334 2492.65 1059.12 2523.06L1224.49 2586.89C1269.38 2604.22 1318.54 2596.53 1356 2566.31C1393.46 2536.09 1411.37 2489.67 1403.93 2442.13L1376.52 2267.01C1363.46 2183.57 1372.63 2097.83 1403.04 2019.04C1433.45 1940.25 1484.26 1870.58 1550 1817.56L1687.95 1706.25C1725.41 1676.04 1743.32 1629.62 1735.88 1582.07C1728.45 1534.53 1697.2 1495.79 1652.3 1478.47L1486.93 1414.64C1408.15 1384.23 1338.47 1333.42 1285.45 1267.69C1232.42 1201.96 1197.49 1123.11 1184.43 1039.68L1185.22 1039.56L1184.43 1039.68L1157.02 864.561C1149.59 817.016 1118.34 778.285 1073.44 760.956C1028.55 743.628 979.39 751.318 941.934 781.535L803.976 892.829C738.247 945.859 659.399 980.789 575.969 993.844C492.529 1006.9 406.788 997.73 328.001 967.321L162.63 903.495C117.738 886.167 68.5677 893.86 31.1208 924.073C-6.33545 954.289 -24.2467 1000.71 -16.8102 1048.26L10.6017 1223.38C23.6605 1306.82 14.4878 1392.56 -15.9215 1471.34C-46.3308 1550.13 -97.142 1619.81 -162.874 1672.83L-300.829 1784.13C-338.285 1814.35 -356.197 1860.77 -348.76 1908.31C-341.324 1955.86 -310.074 1994.59 -265.182 2011.92L-99.8112 2075.74C-21.0237 2106.15 48.6513 2156.96 101.673 2222.7C154.703 2288.43 189.632 2367.27 202.688 2450.7L230.1 2625.82C237.536 2673.37 268.786 2712.1 313.678 2729.43C358.571 2746.76 407.741 2739.06 445.188 2708.85L583.143 2597.55C622.615 2565.71 666.812 2540.4 713.888 2522.42Z" fill="#ED1C24" fill-opacity="0.2"/>
<path d="M1326.34 2625.26C1294.16 2637.54 1258.36 2637.35 1225.08 2623.83L1055.76 2555.07C892.419 2488.72 704.526 2514.78 565.401 2623.07L421.2 2735.32C409.944 2744.08 397.723 2750.93 384.943 2755.81C352.759 2768.09 316.959 2767.91 283.675 2754.38C237.17 2735.49 205.284 2694.53 198.396 2644.81L173.299 2463.81C149.083 2289.18 32.5679 2139.48 -130.774 2073.15L-300.085 2004.38C-346.589 1985.5 -378.476 1944.53 -385.373 1894.81C-392.27 1845.09 -372.737 1797 -333.129 1766.17L-188.929 1653.93C-49.803 1545.63 21.5788 1369.89 -2.6372 1195.26L-27.7349 1014.26C-34.6318 964.536 -15.0989 916.446 24.5085 885.612C64.1194 854.787 115.535 847.649 162.039 866.535L331.351 935.3C494.696 1001.64 682.589 975.586 821.715 867.293L965.915 755.05C1005.52 724.215 1056.94 717.087 1103.45 735.973C1149.95 754.858 1181.84 795.819 1188.73 845.54L1213.83 1026.54L1213.04 1026.65L1213.83 1026.54C1238.05 1201.17 1354.56 1350.87 1517.9 1417.2L1687.22 1485.97C1733.72 1504.85 1765.61 1545.82 1772.49 1595.54C1779.39 1645.26 1759.86 1693.35 1720.25 1724.18L1576.05 1836.43C1436.92 1944.72 1365.54 2120.47 1389.76 2295.09L1414.86 2476.11C1421.76 2525.83 1402.22 2573.92 1362.62 2604.75C1351.34 2613.52 1339.12 2620.38 1326.34 2625.26ZM692.394 2549.76C727.39 2536.4 763.914 2526.98 801.253 2521.8C887.487 2509.84 975.702 2520.84 1056.36 2553.6L1225.67 2622.36C1271.64 2641.03 1322.46 2633.98 1361.63 2603.51C1400.78 2573.03 1420.09 2525.5 1413.28 2476.35L1388.18 2295.34C1376.22 2209.11 1387.22 2120.89 1419.98 2040.24C1452.73 1959.58 1506.36 1888.68 1575.07 1835.21L1719.27 1722.96C1758.42 1692.48 1777.73 1644.95 1770.92 1595.8C1764.1 1546.65 1732.59 1506.16 1686.62 1487.49L1517.31 1418.73C1436.65 1385.97 1365.75 1332.34 1312.28 1263.63C1258.81 1194.93 1224.21 1113.04 1212.26 1026.8L1187.16 845.797C1180.34 796.647 1148.83 756.163 1102.86 737.483C1056.88 718.802 1006.06 725.86 966.898 756.334L822.697 868.577C753.99 922.049 672.102 956.64 585.864 968.594C499.63 980.558 411.415 969.557 330.757 936.801L161.446 868.035C115.473 849.364 64.6546 856.413 25.4875 886.886C-13.6667 917.366 -32.9735 964.898 -26.1642 1014.05L-1.06648 1195.05C10.897 1281.29 -0.103354 1369.5 -32.86 1450.16C-65.6166 1530.82 -119.246 1601.72 -187.953 1655.19L-332.154 1767.44C-371.308 1797.91 -390.615 1845.45 -383.806 1894.6C-376.987 1943.75 -345.472 1984.24 -299.499 2002.92L-130.188 2071.68C-49.5301 2104.44 21.3705 2158.07 74.8425 2226.77C128.315 2295.48 162.906 2377.37 174.86 2463.61L199.958 2644.61C206.776 2693.76 238.291 2734.25 284.264 2752.92C330.237 2771.6 381.055 2764.55 420.222 2734.07L564.423 2621.83C603.374 2591.49 646.579 2567.25 692.394 2549.76Z" fill="#ED1C24" fill-opacity="0.2"/>
<path d="M1332.3 2662.83C1298.3 2675.81 1260.48 2675.28 1225.63 2660.41L1052.34 2586.48C885.161 2515.16 691.008 2538.64 545.647 2647.76L394.989 2760.87C353.615 2791.92 300.494 2798.35 252.904 2778.05C205.313 2757.75 173.19 2714.96 166.982 2663.6L144.37 2476.57C122.547 2296.13 5.13906 2139.72 -162.044 2068.4L-335.328 1994.47C-382.919 1974.17 -415.032 1931.38 -421.25 1880.02C-427.458 1828.65 -406.469 1779.44 -365.087 1748.38L-214.428 1635.28C-69.0678 1526.15 7.68159 1346.27 -14.1413 1165.83L-36.7536 978.801C-42.9615 927.437 -21.9733 878.225 19.4094 847.162C60.7921 816.099 113.903 809.674 161.494 829.975L334.778 903.903C501.961 975.226 696.115 951.744 841.475 842.623L992.134 729.52C1033.51 698.461 1086.63 692.032 1134.22 712.333C1181.81 732.634 1213.92 775.425 1220.14 826.785L1242.75 1013.81C1264.58 1194.25 1381.98 1350.67 1549.17 1421.99L1722.45 1495.92C1770.04 1516.22 1802.15 1559.01 1808.37 1610.37C1814.58 1661.73 1793.59 1710.94 1752.21 1742.01L1601.55 1855.11C1456.19 1964.23 1379.45 2144.11 1401.26 2324.56L1423.88 2511.58C1430.08 2562.95 1409.1 2612.16 1367.71 2643.22C1356.63 2651.54 1344.72 2658.09 1332.3 2662.83ZM669.492 2577.64C708.356 2562.8 749.03 2552.68 790.592 2547.66C879.688 2536.88 970.414 2549.8 1052.96 2585.01L1226.25 2658.94C1273.3 2679.02 1325.83 2672.67 1366.75 2641.95C1407.66 2611.24 1428.42 2562.58 1422.28 2511.79L1399.67 2324.76C1388.89 2235.66 1401.82 2144.94 1437.04 2062.39C1472.25 1979.84 1528.81 1907.72 1600.58 1853.84L1751.24 1740.74C1792.16 1710.02 1812.92 1661.36 1806.78 1610.57C1800.64 1559.78 1768.88 1517.46 1721.81 1497.39L1548.53 1423.46C1465.98 1388.25 1393.87 1331.69 1339.98 1259.92C1286.1 1188.14 1251.93 1103.11 1241.15 1014.02L1241.94 1013.92L1241.15 1014.02L1218.54 826.99C1212.4 776.199 1180.64 733.884 1133.57 713.81C1086.52 693.733 1033.99 700.086 993.072 730.799L842.413 843.902C804.128 872.648 762.053 895.786 717.612 912.752C678.748 927.59 638.073 937.712 596.512 942.736C507.415 953.512 416.69 940.591 334.138 905.368L160.854 831.44C113.799 811.362 61.2698 817.715 20.3531 848.429C-20.5635 879.142 -41.3218 927.806 -35.1829 978.597L-12.5706 1165.62C-1.79453 1254.72 -14.7159 1345.44 -49.9391 1428C-85.153 1510.54 -141.712 1582.66 -213.484 1636.54L-364.143 1749.64C-405.06 1780.36 -425.818 1829.02 -419.679 1879.81C-413.54 1930.6 -381.77 1972.92 -334.714 1992.99L-161.43 2066.92C-78.8818 2102.13 -6.76651 2158.69 47.1158 2230.47C100.998 2302.24 135.174 2387.27 145.941 2476.37L168.553 2663.4C174.692 2714.19 206.462 2756.5 253.518 2776.58C300.573 2796.65 353.102 2790.3 394.019 2759.59L544.677 2646.48C582.985 2617.74 625.06 2594.6 669.492 2577.64Z" fill="#ED1C24" fill-opacity="0.2"/>
<path d="M1337.82 2701.64C1301.92 2715.35 1262 2714.44 1225.54 2698.12L1048.26 2618.8C877.207 2542.27 676.655 2562.98 524.847 2672.85L367.515 2786.72C356.669 2794.57 345.093 2800.81 333.06 2805.4C297.158 2819.11 257.233 2818.19 220.778 2801.88C172.099 2780.1 139.768 2735.42 134.288 2682.38L114.342 2489.18C95.0929 2302.78 -23.125 2139.45 -194.172 2062.92L-371.451 1983.6C-420.131 1961.82 -452.462 1917.14 -457.941 1864.1C-463.42 1811.05 -440.895 1760.71 -397.695 1729.44L-240.362 1615.57C-88.555 1505.7 -6.21102 1321.66 -25.4604 1135.25L-45.4066 942.06C-50.886 889.016 -28.3607 838.671 14.8397 807.407C58.0401 776.143 112.896 770.475 161.576 792.255L338.855 871.573C509.911 948.106 710.464 927.394 862.271 817.524L1019.6 703.65C1062.8 672.386 1117.66 666.718 1166.34 688.498C1215.02 710.279 1247.35 754.956 1252.83 808L1272.78 1001.19C1292.03 1187.6 1410.23 1350.93 1581.29 1427.46L1758.57 1506.78C1807.25 1528.56 1839.58 1573.23 1845.06 1626.28C1850.54 1679.32 1828.01 1729.67 1784.81 1760.93L1627.48 1874.81C1475.67 1984.68 1393.33 2168.72 1412.58 2355.12L1432.53 2548.31C1438 2601.36 1415.48 2651.7 1372.28 2682.97C1361.44 2690.82 1349.86 2697.05 1337.82 2701.64ZM645.126 2606.06C688.063 2589.67 733.137 2578.87 779.147 2574.12C871.182 2564.62 964.457 2579.56 1048.91 2617.35L1226.19 2696.66C1274.34 2718.21 1328.6 2712.61 1371.34 2681.68C1414.08 2650.75 1436.35 2600.95 1430.93 2548.48L1410.98 2355.29C1401.48 2263.26 1416.43 2169.98 1454.21 2085.53C1492 2001.08 1551.59 1927.77 1626.53 1873.53L1783.87 1759.66C1826.61 1728.73 1848.88 1678.93 1843.46 1626.46C1838.04 1573.98 1806.06 1529.79 1757.9 1508.25L1580.62 1428.94C1496.17 1391.15 1422.86 1331.56 1368.62 1256.62C1314.37 1181.67 1280.68 1093.41 1271.18 1001.37L1271.97 1001.3L1271.18 1001.37L1251.23 808.183C1245.81 755.706 1213.82 711.517 1165.67 689.974C1117.52 668.43 1063.25 674.035 1020.52 704.959L863.188 818.833C825.716 845.952 784.906 867.944 741.978 884.332C699.031 900.728 653.976 911.517 607.956 916.274C515.922 925.774 422.647 910.829 338.196 873.044L160.917 793.727C112.767 772.183 58.4968 777.788 15.7661 808.712C-26.974 839.64 -49.2471 889.44 -43.8274 941.907L-23.8812 1135.1C-14.3811 1227.13 -29.3262 1320.41 -67.1108 1404.86C-104.895 1489.31 -164.486 1562.62 -239.43 1616.86L-396.763 1730.74C-439.503 1761.66 -461.776 1811.46 -456.356 1863.93C-450.933 1916.41 -418.949 1960.6 -370.799 1982.14L-193.52 2061.46C-109.069 2099.24 -35.7538 2158.83 18.4832 2233.78C72.7331 2308.73 106.427 2396.98 115.927 2489.02L135.873 2682.21C141.297 2734.69 173.281 2778.87 221.431 2800.42C269.582 2821.96 323.852 2816.36 366.582 2785.43L523.915 2671.56C561.387 2644.44 602.188 2622.45 645.126 2606.06Z" fill="#ED1C24" fill-opacity="0.2"/>
<path d="M1342.91 2741.73C1305.02 2756.19 1262.89 2754.85 1224.78 2736.99L1043.46 2652.04C868.514 2570.08 661.399 2587.82 502.947 2698.34L338.721 2812.88C293.633 2844.33 236.998 2849.18 187.217 2825.86C137.436 2802.55 104.917 2755.92 100.224 2701.15L83.1376 2501.65C66.6495 2309.16 -52.2722 2138.67 -227.212 2056.7L-408.506 1971.74C-458.287 1948.43 -490.806 1901.8 -495.498 1847.03C-500.191 1792.26 -476.075 1740.78 -430.986 1709.33L-266.76 1594.79C-108.3 1484.26 -20.1059 1296.03 -36.594 1103.54L-53.6808 904.041C-58.3733 849.273 -34.2572 797.796 10.8312 766.346C55.9196 734.897 112.555 730.048 162.336 753.367L343.648 838.316C518.588 920.282 725.713 902.541 884.164 792.019L1048.39 677.472C1093.48 646.022 1150.11 641.173 1199.89 664.492C1249.68 687.811 1282.19 734.439 1286.89 789.207L1303.97 988.703L1303.18 988.772L1303.97 988.703C1320.46 1181.19 1439.38 1351.69 1614.32 1433.66L1795.64 1518.61C1845.42 1541.92 1877.94 1588.55 1882.62 1643.32C1887.31 1698.09 1863.2 1749.57 1818.11 1781.02L1653.88 1895.57C1495.42 2006.09 1407.23 2194.33 1423.72 2386.82L1440.8 2586.31C1445.49 2641.08 1421.38 2692.56 1376.29 2724.01C1365.72 2731.38 1354.51 2737.3 1342.91 2741.73ZM619.232 2635.02C666.466 2616.99 716.181 2605.53 766.874 2601.19C861.901 2593.05 957.781 2610.13 1044.15 2650.6L1225.47 2735.55C1263.18 2753.21 1304.87 2754.54 1342.37 2740.23C1353.85 2735.85 1364.92 2730.01 1375.39 2722.71C1420 2691.59 1443.87 2640.66 1439.22 2586.47L1422.14 2386.97C1414 2291.94 1431.08 2196.06 1471.55 2109.69C1512.02 2023.33 1574.75 1948.83 1652.98 1894.27L1817.21 1779.72C1861.82 1748.61 1885.69 1697.67 1881.04 1643.48C1876.39 1589.28 1844.23 1543.15 1794.96 1520.07L1613.65 1435.12C1527.29 1394.65 1452.79 1331.92 1398.23 1253.69C1343.68 1175.47 1310.53 1083.88 1302.39 988.856L1285.31 789.36C1280.66 735.163 1248.49 689.033 1199.23 665.954C1149.97 642.876 1093.93 647.68 1049.32 678.796L885.098 793.343C806.872 847.901 715.29 881.045 620.263 889.183C525.236 897.321 429.356 880.234 342.992 839.765L161.68 754.816C112.419 731.738 56.3858 736.538 11.7707 767.658C-32.8445 798.777 -56.7087 849.708 -52.0629 903.905L-34.9761 1103.4C-26.8381 1198.43 -43.925 1294.31 -84.3902 1380.68C-124.859 1467.05 -187.595 1541.54 -265.821 1596.1L-430.047 1710.65C-474.662 1741.76 -498.526 1792.7 -493.88 1846.89C-489.235 1901.09 -457.066 1947.22 -407.805 1970.3L-226.492 2055.25C-140.129 2095.72 -65.6337 2158.45 -11.0753 2236.68C43.4831 2314.9 76.6268 2406.49 84.7648 2501.51L101.852 2701.01C106.497 2755.21 138.67 2801.35 187.927 2824.42C237.188 2847.49 293.221 2842.69 337.836 2811.57L502.062 2697.03C538.533 2671.58 577.929 2650.79 619.232 2635.02Z" fill="#ED1C24" fill-opacity="0.2"/>
<path d="M1347.51 2783.1C1307.53 2798.36 1263.1 2796.55 1223.29 2777.04L1037.94 2686.22C859.078 2598.58 645.259 2613.14 479.934 2724.22L308.601 2839.33C261.57 2870.93 203.115 2874.91 152.223 2849.97C101.344 2825.04 68.669 2776.4 64.8123 2719.87L50.7879 2513.93C37.251 2315.21 -82.2539 2137.32 -261.128 2049.68L-446.488 1958.86C-497.367 1933.93 -530.042 1885.3 -533.899 1828.76C-537.746 1772.23 -511.966 1719.61 -464.931 1688.02L-293.598 1572.91C-128.274 1461.83 -33.972 1269.38 -47.496 1070.66L-61.5205 864.721C-65.3679 808.186 -39.5883 755.571 7.44684 723.977C54.4784 692.374 112.933 688.394 163.821 713.323L349.175 804.148C528.037 891.788 741.856 877.229 907.181 766.148L1078.51 651.04C1125.54 619.437 1184 615.456 1234.89 640.386C1285.77 665.319 1318.44 713.953 1322.3 770.486L1336.32 976.428C1349.86 1175.15 1469.38 1353.04 1648.24 1440.68L1833.6 1531.5C1884.48 1556.44 1917.16 1605.07 1921.01 1661.6C1924.86 1718.14 1899.08 1770.75 1852.05 1802.35L1680.71 1917.46C1515.38 2028.54 1421.09 2220.99 1434.61 2419.7L1448.64 2625.64C1452.48 2682.18 1426.7 2734.8 1379.67 2766.39C1369.42 2773.28 1358.64 2778.85 1347.51 2783.1ZM591.739 2664.5C643.496 2644.74 698.105 2632.65 753.722 2628.87C851.822 2622.19 950.337 2641.52 1038.63 2684.79L1223.98 2775.61C1274.34 2800.29 1332.21 2796.36 1378.76 2765.08C1425.31 2733.79 1450.83 2681.72 1447.02 2625.77L1433 2419.83C1426.32 2321.73 1445.66 2223.21 1488.92 2134.92C1532.19 2046.63 1598.19 1970.98 1679.81 1916.14L1851.14 1801.03C1897.69 1769.75 1923.22 1717.67 1919.4 1661.73C1915.59 1605.76 1883.24 1557.62 1832.88 1532.95L1647.52 1442.13C1559.23 1398.87 1483.58 1332.87 1428.74 1251.25C1373.91 1169.64 1341.4 1074.65 1334.71 976.561L1335.51 976.504L1334.71 976.561L1320.69 770.618C1316.88 714.657 1284.53 666.518 1234.17 641.847C1183.81 617.167 1125.95 621.103 1079.39 652.385L908.058 767.494C826.448 822.327 731.455 854.836 633.368 861.519C535.268 868.197 436.753 848.862 348.465 805.596L163.111 714.772C112.746 690.092 54.8849 694.028 8.33019 725.31C-38.2246 756.591 -63.7486 808.67 -59.9293 864.628L-45.9048 1070.57C-39.2269 1168.67 -58.5617 1267.19 -101.828 1355.47C-145.091 1443.77 -211.092 1519.42 -292.711 1574.25L-464.044 1689.36C-510.599 1720.64 -536.114 1772.72 -532.304 1828.68C-528.494 1884.64 -496.147 1932.78 -445.786 1957.45L-260.432 2048.27C-172.135 2091.54 -96.4895 2157.54 -41.6524 2239.16C13.1813 2320.77 45.6897 2415.76 52.3734 2513.85L66.3978 2719.79C70.2078 2775.75 102.551 2823.88 152.916 2848.56C203.281 2873.24 261.142 2869.31 307.697 2838.02L479.03 2722.91C514.371 2699.16 552.221 2679.59 591.739 2664.5Z" fill="#ED1C24" fill-opacity="0.2"/>
<path d="M1351.6 2825.8C1309.43 2841.9 1262.58 2839.57 1221.04 2818.31L1031.62 2721.35C848.816 2627.8 628.153 2638.96 455.728 2750.48L277.047 2866.05C228.004 2897.77 167.686 2900.82 115.697 2874.21C63.7082 2847.61 30.9026 2796.89 27.9528 2738.56L17.2064 2526.03C6.83634 2320.94 -113.164 2135.42 -295.964 2041.87L-485.405 1944.91C-537.394 1918.3 -570.2 1867.58 -573.15 1809.25C-576.1 1750.92 -548.584 1697.16 -499.541 1665.44L-320.859 1549.87C-148.435 1438.35 -47.767 1241.66 -58.137 1036.57L-68.8834 824.042C-71.8332 765.708 -44.3176 711.948 4.72518 680.231C53.768 648.513 114.086 645.459 166.075 672.066L355.503 769.02C538.303 862.575 758.966 851.419 931.39 739.897L1110.07 624.327C1159.11 592.609 1219.43 589.555 1271.42 616.162C1323.41 642.77 1356.22 693.485 1359.17 751.819L1369.91 964.343C1380.28 1169.43 1500.28 1354.95 1683.08 1448.51L1872.51 1545.46C1924.5 1572.07 1957.31 1622.79 1960.26 1681.12C1963.21 1739.45 1935.69 1793.21 1886.65 1824.93L1707.97 1940.5C1535.54 2052.02 1434.87 2248.71 1445.25 2453.8L1456 2666.33C1458.95 2724.67 1431.44 2778.43 1382.39 2810.14C1372.53 2816.52 1362.21 2821.74 1351.6 2825.8ZM562.586 2694.52C619.098 2672.94 678.885 2660.25 739.676 2657.18C840.907 2652.06 942.104 2673.76 1032.33 2719.94L1221.76 2816.89C1273.24 2843.24 1332.96 2840.22 1381.52 2808.81C1430.08 2777.4 1457.33 2724.16 1454.39 2666.41L1443.65 2453.89C1438.53 2352.66 1460.23 2251.46 1506.41 2161.24C1552.58 2071.01 1621.98 1994.22 1707.09 1939.18L1885.77 1823.61C1934.33 1792.2 1961.56 1738.97 1958.65 1681.21C1955.74 1623.45 1923.26 1573.24 1871.77 1546.89L1682.34 1449.94C1592.12 1403.76 1515.33 1334.36 1460.28 1249.26C1405.24 1164.15 1373.43 1065.66 1368.32 964.428L1369.12 964.39L1368.32 964.428L1357.57 751.903C1354.65 694.147 1322.18 643.937 1270.69 617.587C1219.22 591.233 1159.49 594.264 1110.94 625.667L932.255 741.237C898.253 763.23 862.107 781.515 824.514 795.867C768.002 817.441 708.215 830.13 647.424 833.204C546.193 838.326 444.996 816.622 354.773 770.444L165.345 673.49C113.861 647.14 54.1431 650.168 5.58995 681.57C-42.9725 712.976 -70.2162 766.214 -67.2944 823.971L-56.548 1036.49C-51.4258 1137.73 -73.1301 1238.92 -119.308 1329.15C-165.485 1419.37 -234.88 1496.16 -319.985 1551.2L-498.667 1666.77C-547.23 1698.18 -574.473 1751.42 -571.551 1809.17C-568.63 1866.93 -536.156 1917.14 -484.672 1943.49L-295.243 2040.45C-205.02 2086.62 -128.229 2156.02 -73.1849 2241.12C-18.1409 2326.23 13.6696 2424.72 18.7918 2525.95L29.5382 2738.48C32.46 2796.23 64.9337 2846.44 116.418 2872.79C167.902 2899.14 227.619 2896.11 276.173 2864.71L454.854 2749.14C488.847 2727.15 525.002 2708.86 562.586 2694.52Z" fill="#ED1C24" fill-opacity="0.2"/>
<path d="M1355.12 2869.85C1310.65 2886.82 1261.28 2883.92 1217.97 2860.8L1024.45 2757.45C837.707 2657.72 610.032 2665.26 430.298 2777.12L244.041 2893.03C192.926 2924.85 130.708 2926.9 77.5986 2898.54C24.4896 2870.18 -8.40483 2817.32 -10.3952 2757.16L-17.655 2537.9C-24.6517 2326.31 -145.016 2132.91 -331.76 2033.17L-525.277 1929.82C-578.386 1901.46 -611.28 1848.61 -613.261 1788.44C-615.251 1728.27 -585.931 1673.35 -534.812 1641.55L-348.555 1525.63C-168.812 1413.77 -61.4984 1212.84 -68.508 1001.24L-75.7679 781.981C-77.7582 721.814 -48.4376 666.895 2.68108 635.091C53.7961 603.278 116.015 601.221 169.124 629.585L362.641 732.931C549.384 832.666 777.049 825.13 956.792 713.265L1143.05 597.351C1194.16 565.541 1256.38 563.481 1309.49 591.845C1362.6 620.208 1395.5 673.062 1397.49 733.229L1404.75 952.49L1403.95 952.514L1404.75 952.49C1411.75 1164.08 1532.11 1357.48 1718.85 1457.21L1912.37 1560.56C1965.48 1588.92 1998.37 1641.78 2000.35 1701.95C2002.34 1762.12 1973.02 1817.04 1921.9 1848.84L1735.65 1964.75C1555.9 2076.62 1448.59 2277.55 1455.6 2489.14L1462.86 2708.4C1464.85 2768.57 1435.53 2823.49 1384.41 2855.3C1374.98 2861.15 1365.18 2866.01 1355.12 2869.85ZM531.717 2725.02C593.226 2701.54 658.486 2688.27 724.69 2686.08C829.126 2682.63 933.038 2706.82 1025.21 2756.04L1218.72 2859.39C1261.61 2882.3 1310.52 2885.16 1354.56 2868.35C1364.52 2864.55 1374.22 2859.74 1383.57 2853.93C1434.19 2822.42 1463.24 2768.03 1461.26 2708.44L1454 2489.17C1450.55 2384.74 1474.74 2280.83 1523.96 2188.66C1573.19 2096.49 1646.1 2018.59 1734.8 1963.38L1921.06 1847.47C1971.68 1815.96 2000.73 1761.57 1998.76 1701.98C1996.78 1642.38 1964.21 1590.04 1911.61 1561.94L1718.09 1458.6C1625.92 1409.37 1548.03 1336.46 1492.82 1247.76C1437.61 1159.04 1406.6 1056.96 1403.14 952.524L1395.88 733.263C1393.91 673.668 1361.34 621.323 1308.73 593.226C1256.14 565.138 1194.51 567.181 1143.89 598.679L957.631 714.593C868.919 769.805 766.822 800.808 662.399 804.27C557.963 807.726 454.051 783.536 361.883 734.312L168.366 630.966C115.769 602.878 54.1417 604.912 3.51991 636.419C-47.1019 667.926 -76.1541 722.315 -74.1788 781.91L-66.9189 1001.17C-63.4632 1105.61 -87.6526 1209.52 -136.877 1301.69C-186.101 1393.85 -259.013 1471.75 -347.716 1526.96L-533.973 1642.87C-584.595 1674.38 -613.647 1728.77 -611.672 1788.37C-609.697 1847.96 -577.125 1900.31 -524.528 1928.39L-331.011 2031.74C-238.843 2080.96 -160.945 2153.88 -105.737 2242.58C-50.525 2331.29 -19.5253 2433.38 -16.0602 2537.81L-8.80036 2757.07C-6.82512 2816.67 25.7468 2869.01 78.3474 2897.11C130.944 2925.2 192.569 2923.15 243.194 2891.66L429.451 2775.74C461.925 2755.55 496.197 2738.58 531.717 2725.02Z" fill="#ED1C24" fill-opacity="0.2"/>
<path d="M1358.06 2915.29C1311.18 2933.18 1259.18 2929.66 1214.05 2904.54L1016.44 2794.54C825.733 2688.38 590.92 2692.05 403.624 2804.12L209.545 2920.24C200.614 2925.58 191.371 2930.06 181.926 2933.66C135.046 2951.56 83.0394 2948.04 37.9039 2922.92C-16.3185 2892.74 -49.2634 2837.68 -50.2396 2775.62L-53.7785 2549.48C-57.1897 2331.25 -177.777 2129.72 -368.484 2023.56L-566.095 1913.55C-620.317 1883.37 -653.262 1828.31 -654.238 1766.25C-655.211 1704.21 -623.996 1648.14 -570.741 1616.27L-376.665 1500.14C-189.369 1388.07 -75.1429 1182.87 -78.5541 964.638L-82.093 738.498C-83.0656 676.454 -51.851 620.383 1.40447 588.513C54.6506 556.646 118.814 555.646 173.036 585.832L370.647 695.836C561.354 802 796.171 798.338 983.463 686.257L1177.54 570.13C1230.79 538.272 1294.95 537.263 1349.17 567.449C1403.39 597.635 1436.34 652.696 1437.31 714.749L1440.85 940.889C1444.26 1159.13 1564.85 1360.65 1755.56 1466.81L1953.17 1576.82C2007.39 1607 2040.34 1662.07 2041.31 1724.12C2042.28 1786.16 2011.07 1842.23 1957.81 1874.1L1763.74 1990.23C1576.44 2102.3 1462.22 2307.5 1465.63 2525.73L1469.17 2751.87C1470.14 2813.92 1438.93 2869.99 1385.67 2901.86C1376.75 2907.2 1367.51 2911.68 1358.06 2915.29ZM499.039 2756.04C565.818 2730.54 636.841 2716.75 708.719 2715.63C816.422 2713.95 923.098 2740.76 1017.21 2793.14L1214.82 2903.15C1268.54 2933.05 1332.11 2932.06 1384.86 2900.49C1437.62 2868.91 1468.54 2813.37 1467.57 2751.9L1464.03 2525.76C1462.35 2418.06 1489.16 2311.38 1541.54 2217.27C1593.94 2123.15 1670.49 2044.18 1762.92 1988.86L1956.99 1872.74C2009.75 1841.16 2040.68 1785.62 2039.71 1724.15C2038.75 1662.68 2006.11 1608.13 1952.39 1578.22L1754.78 1468.21C1660.66 1415.83 1581.68 1339.27 1526.37 1246.84C1471.06 1154.41 1440.93 1048.63 1439.25 940.923L1440.05 940.908L1439.25 940.923L1435.71 714.783C1434.75 653.312 1402.11 598.757 1348.39 568.85C1294.67 538.943 1231.1 539.94 1178.35 571.513L984.27 687.64C891.836 742.945 786.055 773.075 678.353 774.759C570.65 776.444 463.974 749.638 369.859 697.25L172.248 587.246C118.529 557.339 54.9638 558.336 2.21447 589.906C-50.5441 621.479 -81.468 677.022 -80.5011 738.489L-76.9624 964.63C-75.2781 1072.33 -102.083 1179.01 -154.471 1273.12C-206.86 1367.24 -283.416 1446.22 -375.846 1501.53L-569.921 1617.66C-622.68 1649.23 -653.604 1704.77 -652.637 1766.24C-651.679 1827.71 -619.035 1882.27 -565.315 1912.17L-367.704 2022.18C-273.59 2074.57 -194.611 2151.12 -139.296 2243.55C-83.9914 2335.99 -53.8617 2441.77 -52.1774 2549.47L-48.6385 2775.61C-47.681 2837.08 -15.0364 2891.64 38.6834 2921.54C92.4031 2951.45 155.968 2950.45 208.717 2918.88L402.793 2802.76C433.54 2784.35 465.771 2768.74 499.039 2756.04Z" fill="#ED1C24" fill-opacity="0.2"/>
<path d="M1360.37 2962.13C1310.97 2980.99 1256.2 2976.79 1209.22 2949.56L1007.51 2832.61C812.841 2719.74 570.723 2719.3 375.644 2831.46L173.507 2947.66C165.133 2952.48 156.512 2956.56 147.721 2959.92C98.3188 2978.78 43.5481 2974.58 -3.43511 2947.34C-58.7771 2915.26 -91.7379 2857.92 -91.6252 2793.95L-91.1957 2560.79C-90.7871 2335.77 -211.459 2125.86 -406.135 2013L-607.842 1896.05C-663.184 1863.97 -696.145 1806.63 -696.032 1742.66C-695.92 1678.69 -662.735 1621.47 -607.28 1589.59L-405.143 1473.38C-210.065 1361.23 -88.6151 1151.76 -88.2064 926.738L-87.7768 693.581C-87.6642 629.614 -54.4796 572.395 0.975033 540.509C56.4297 508.623 122.575 508.75 177.917 540.832L379.624 657.781C574.294 770.653 816.413 771.087 1011.5 658.93L1213.64 542.722C1269.09 510.836 1335.24 510.963 1390.58 543.044C1445.92 575.126 1478.88 632.471 1478.77 696.439L1478.34 929.596C1477.93 1154.62 1598.6 1364.53 1793.28 1477.38L1994.99 1594.33C2050.33 1626.42 2083.29 1683.76 2083.18 1747.73C2083.06 1811.7 2049.88 1868.91 1994.42 1900.8L1792.29 2017.02C1597.21 2129.17 1475.76 2338.63 1475.35 2563.66L1474.92 2796.82C1474.81 2860.78 1441.63 2918 1386.17 2949.89C1377.79 2954.69 1369.16 2958.78 1360.37 2962.13ZM464.496 2787.52C536.805 2759.91 613.894 2745.64 691.723 2745.78C802.766 2745.98 912.235 2775.53 1008.3 2831.23L1210.01 2948.18C1264.84 2979.97 1330.4 2980.09 1385.35 2948.5C1440.31 2916.9 1473.19 2860.19 1473.3 2796.8L1473.73 2563.65C1473.93 2452.6 1503.48 2343.13 1559.18 2247.07C1614.88 2151 1695.2 2070.97 1791.47 2015.63L1993.61 1899.42C2048.56 1867.82 2081.44 1811.12 2081.56 1747.73C2081.68 1684.33 2049 1627.51 1994.16 1595.71L1792.45 1478.76C1696.39 1423.06 1616.36 1342.74 1561.01 1246.47C1505.67 1150.2 1476.52 1040.63 1476.73 929.58L1477.52 929.587L1476.73 929.58L1477.16 696.422C1477.28 633.031 1444.6 576.208 1389.76 544.406C1334.93 512.613 1269.37 512.486 1214.41 544.084L1012.28 660.292C983.48 676.852 953.477 691.068 922.62 702.849C850.31 730.454 773.221 744.728 695.392 744.587C584.348 744.39 474.88 714.84 378.815 659.139L177.108 542.189C122.272 510.396 56.7192 510.279 1.76142 541.868C-53.1928 573.466 -86.0703 630.172 -86.1887 693.563L-86.6183 926.72C-86.816 1037.76 -116.366 1147.23 -172.067 1243.3C-227.767 1339.36 -308.086 1419.39 -404.357 1474.74L-606.494 1590.95C-661.448 1622.54 -694.326 1679.25 -694.444 1742.64C-694.563 1806.03 -661.887 1862.85 -607.048 1894.66L-405.34 2011.61C-309.276 2067.31 -229.246 2147.63 -173.899 2243.9C-118.553 2340.17 -89.4062 2449.74 -89.6133 2560.79L-90.0429 2793.94C-90.1613 2857.33 -57.4856 2914.16 -2.6462 2945.96C52.1896 2977.75 117.743 2977.87 172.7 2946.28L374.837 2830.07C403.639 2813.52 433.638 2799.3 464.496 2787.52Z" fill="#ED1C24" fill-opacity="0.2"/>
<path d="M1361.6 3009.83C1309.55 3029.71 1251.9 3024.76 1203.02 2995.28L997.204 2871.1C798.565 2751.25 548.995 2746.44 345.89 2858.54L135.445 2974.69C127.691 2978.97 119.752 2982.65 111.671 2985.73C59.6158 3005.61 1.96151 3000.67 -46.9102 2971.18C-103.363 2937.11 -136.311 2877.42 -135.038 2811.5L-130.409 2571.17C-125.933 2339.22 -246.552 2120.68 -445.191 2000.83L-651.007 1876.65C-707.46 1842.59 -740.407 1782.89 -739.135 1716.97C-737.866 1651.04 -702.638 1592.67 -644.917 1560.81L-434.472 1444.66C-231.367 1332.56 -102.406 1118.83 -97.9395 886.879L-93.3108 646.553C-92.0417 580.624 -56.8145 522.251 0.907419 490.388C58.6293 458.525 126.804 459.847 183.263 493.899L389.088 618.076C587.727 737.92 837.297 742.734 1040.4 630.632L1250.85 514.485C1308.57 482.622 1376.74 483.934 1433.2 517.996C1489.65 552.062 1522.6 611.757 1521.33 677.676L1516.69 918.006C1512.22 1149.96 1632.83 1368.5 1831.47 1488.34L2037.29 1612.52C2093.74 1646.59 2126.69 1706.28 2125.42 1772.2C2124.15 1838.13 2088.92 1896.51 2031.2 1928.37L1820.75 2044.52C1617.65 2156.62 1488.69 2370.35 1484.22 2602.3L1479.59 2842.62C1478.32 2908.55 1443.1 2966.93 1385.38 2998.79C1377.62 3003.07 1369.67 3006.75 1361.6 3009.83ZM427.604 2818.87C505.725 2789.04 589.224 2774.35 673.266 2775.96C787.719 2778.16 900.021 2810.59 998.04 2869.73L1203.86 2993.91C1252.3 3023.13 1309.46 3028.04 1361.05 3008.34C1369.06 3005.29 1376.94 3001.64 1384.62 2997.4C1441.84 2965.81 1476.75 2907.94 1478.02 2842.59L1482.65 2602.27C1484.85 2487.81 1517.28 2375.51 1576.41 2277.5C1635.55 2179.48 1719.77 2098.44 1820 2043.12L2030.44 1926.98C2087.66 1895.39 2122.58 1837.52 2123.84 1772.17C2125.1 1706.83 2092.45 1647.65 2036.48 1613.89L1830.67 1489.71C1732.65 1430.58 1651.61 1346.35 1596.29 1246.12C1540.98 1145.9 1512.9 1032.43 1515.12 917.976L1519.76 677.646C1521.01 612.3 1488.36 553.124 1432.4 519.364C1376.43 485.603 1308.86 484.3 1251.63 515.875L1041.19 632.022C1014.55 646.72 986.986 659.502 958.706 670.298C880.586 700.122 797.086 714.82 713.045 713.209C598.591 711.005 486.29 678.576 388.274 619.446L182.457 495.267C126.496 461.506 58.9224 460.19 1.69515 491.779C-55.5227 523.363 -90.4392 581.233 -91.7048 646.582L-96.3335 886.908C-98.5372 1001.36 -130.966 1113.66 -190.096 1211.68C-249.236 1309.7 -333.461 1390.74 -433.684 1446.05L-644.129 1562.2C-701.347 1593.78 -736.263 1651.65 -737.529 1717C-738.785 1782.35 -706.132 1841.52 -650.17 1875.28L-444.354 1999.46C-346.334 2058.6 -265.294 2142.83 -209.981 2243.05C-154.667 2343.27 -126.59 2456.74 -128.803 2571.2L-133.432 2811.53C-134.688 2876.87 -102.035 2936.05 -46.0732 2969.81C9.89207 3003.58 77.4583 3004.88 134.689 2973.3L345.134 2857.15C371.748 2842.44 399.325 2829.66 427.604 2818.87Z" fill="#ED1C24" fill-opacity="0.2"/>
<path d="M1362.93 3060.21C1308.09 3081.15 1247.44 3075.39 1196.63 3043.52L986.722 2911.81C784.122 2784.7 526.95 2775.26 315.565 2887.15L96.5527 3003.09C89.4902 3006.82 82.2809 3010.09 74.9752 3012.88C20.1357 3033.81 -40.5163 3028.06 -91.3262 2996.18C-148.896 2960.06 -181.783 2897.94 -179.283 2830.03L-170.18 2582.38C-161.399 2343.37 -281.799 2115.92 -484.402 1988.81L-694.312 1857.1C-751.881 1820.98 -784.769 1758.86 -782.268 1690.94C-779.768 1623.03 -742.416 1563.49 -682.346 1531.69L-463.334 1415.75C-251.953 1303.85 -115.176 1085.86 -106.399 846.842L-97.305 599.202C-94.8046 531.284 -57.453 471.746 2.61713 439.95C62.6873 408.154 132.917 410.736 190.496 446.855L400.405 578.56C603.005 705.669 860.182 715.126 1071.56 603.224L1290.58 487.286C1350.65 455.486 1420.88 458.067 1478.45 494.19C1536.02 530.313 1568.91 592.428 1566.41 660.347L1557.31 907.99C1548.53 1147 1668.93 1374.45 1871.53 1501.57L2081.44 1633.27C2139.01 1669.39 2171.9 1731.51 2169.4 1799.43C2166.9 1867.35 2129.54 1926.88 2069.47 1958.68L1850.46 2074.62C1639.08 2186.52 1502.3 2404.51 1493.53 2643.53L1484.43 2891.17C1481.93 2959.09 1444.58 3018.63 1384.51 3050.42C1377.45 3054.16 1370.24 3057.42 1362.93 3060.21ZM389.495 2851.87C473.725 2819.71 563.963 2804.64 654.495 2807.97C772.426 2812.3 887.592 2847.75 987.554 2910.46L1197.46 3042.16C1254.55 3077.98 1324.19 3080.54 1383.75 3049.01C1443.31 3017.48 1480.34 2958.45 1482.82 2891.11L1491.91 2643.47C1496.24 2525.54 1531.69 2410.38 1594.4 2310.41C1657.12 2210.45 1745.39 2128.43 1849.69 2073.22L2068.7 1957.28C2128.27 1925.76 2165.3 1866.73 2167.77 1799.38C2170.25 1732.04 2137.65 1670.45 2080.56 1634.64L1870.65 1502.93C1770.68 1440.21 1688.67 1351.94 1633.46 1247.64C1578.25 1143.34 1551.35 1025.88 1555.69 907.946L1556.48 907.975L1555.69 907.946L1564.78 660.306C1567.25 592.965 1534.65 531.372 1477.56 495.558C1420.47 459.744 1350.83 457.184 1291.28 488.708L1072.27 604.647C1048.03 617.476 1023.07 628.781 997.573 638.515C913.343 670.671 823.102 685.738 732.574 682.418C614.642 678.085 499.476 642.639 399.515 579.927L189.605 448.222C132.517 412.408 62.8833 409.846 3.3207 441.373C-56.2419 472.9 -93.2735 531.93 -95.748 599.272L-104.851 846.915C-109.184 964.847 -144.63 1080.01 -207.342 1179.97C-270.063 1279.94 -358.336 1361.96 -462.633 1417.17L-681.614 1533.1C-741.177 1564.63 -778.209 1623.66 -780.683 1691C-783.158 1758.34 -750.556 1819.94 -693.468 1855.75L-483.558 1987.46C-383.593 2050.18 -301.576 2138.45 -246.365 2242.75C-191.155 2347.05 -164.261 2464.51 -168.595 2582.44L-177.698 2830.08C-180.172 2897.43 -147.57 2959.02 -90.4821 2994.83C-33.394 3030.65 36.2396 3033.21 95.8023 3001.68L314.815 2885.74C339.041 2872.91 364 2861.6 389.495 2851.87Z" fill="#ED1C24" fill-opacity="0.2"/>
<path d="M1363.09 3111.49C1305.34 3133.54 1241.53 3126.9 1188.76 3092.49L974.76 2952.96C788.436 2831.47 554.585 2807.89 349.157 2886.31C326.847 2894.83 304.905 2904.53 283.367 2915.46L55.5295 3031.03C-6.95701 3062.72 -79.2919 3058.8 -137.979 3020.53C-196.667 2982.27 -229.436 2917.66 -225.647 2847.7L-211.809 2592.61C-198.457 2346.4 -318.476 2109.77 -525.034 1975.1L-739.034 1835.57C-797.721 1797.3 -830.491 1732.69 -826.701 1662.74C-822.902 1592.78 -783.337 1532.09 -720.86 1500.4L-493.022 1384.84C-273.115 1273.29 -128.2 1051.05 -114.851 804.823L-101.013 549.731C-97.2143 479.775 -57.6492 419.082 4.82804 387.395C67.3147 355.704 139.649 359.623 198.337 397.888L412.336 537.418C598.66 658.903 832.511 682.488 1037.94 604.061C1060.25 595.544 1082.19 585.84 1103.73 574.909L1331.57 459.348C1394.05 427.657 1466.39 431.575 1525.08 469.84C1583.76 508.105 1616.53 572.717 1612.74 642.669L1598.9 897.761C1585.55 1143.98 1705.57 1380.6 1912.13 1515.28L2126.13 1654.81C2184.82 1693.07 2217.59 1757.68 2213.8 1827.64C2210 1897.59 2170.43 1958.29 2107.96 1989.97L1880.12 2105.53C1660.21 2217.08 1515.3 2439.33 1501.95 2685.55L1488.11 2940.64C1484.31 3010.6 1444.75 3071.29 1382.27 3102.98C1375.97 3106.19 1369.57 3109.02 1363.09 3111.49ZM348.894 2884.7C439.543 2850.09 536.88 2834.71 634.183 2840C755.661 2846.58 873.736 2885.19 975.637 2951.64L1189.64 3091.17C1247.84 3129.11 1319.59 3133.02 1381.55 3101.57C1443.52 3070.14 1482.76 3009.95 1486.52 2940.57L1500.36 2685.48C1506.95 2564 1545.55 2445.93 1612 2344.03C1678.44 2242.12 1770.91 2159.17 1879.4 2104.14L2107.24 1988.58C2169.21 1957.15 2208.45 1896.95 2212.21 1827.58C2215.97 1758.19 2183.47 1694.12 2125.27 1656.16L1911.27 1516.63C1809.36 1450.19 1726.41 1357.72 1671.38 1249.23C1616.34 1140.73 1590.74 1019.18 1597.33 897.699L1598.13 897.738L1597.33 897.699L1611.17 642.607C1614.93 573.222 1582.43 509.15 1524.22 471.194C1466.02 433.247 1394.27 429.35 1332.31 460.788L1104.47 576.349C1082.88 587.301 1060.76 597.095 1038.23 605.695C947.583 640.302 850.246 655.68 752.942 650.397C631.464 643.81 513.389 605.204 411.489 538.759L197.489 399.228C139.287 361.281 67.5388 357.385 5.57627 388.822C-56.3898 420.25 -95.6314 480.445 -99.3954 549.82L-113.246 804.906C-119.832 926.385 -158.438 1044.46 -224.884 1146.36C-291.326 1248.27 -383.794 1331.21 -492.29 1386.25L-720.128 1501.81C-782.094 1533.24 -821.336 1593.44 -825.1 1662.81C-828.86 1732.19 -796.36 1796.27 -738.155 1834.22L-524.155 1973.75C-422.245 2040.2 -339.3 2132.66 -284.264 2241.16C-229.228 2349.66 -203.63 2471.21 -210.216 2592.69L-224.054 2847.78C-227.815 2917.17 -195.315 2981.24 -137.113 3019.19C-78.9108 3057.13 -7.16609 3061.02 54.8036 3029.6L282.641 2914.04C304.245 2903.08 326.36 2893.3 348.894 2884.7Z" fill="#ED1C24" fill-opacity="0.2"/>
<path d="M1362.44 3164.31C1301.62 3187.53 1234.54 3179.93 1179.77 3142.84L961.697 2995.17C751.205 2852.63 478.379 2833.05 249.675 2944.07L12.7456 3059.09C7.28258 3061.74 1.75124 3064.13 -3.83548 3066.27C-64.654 3089.49 -131.738 3081.88 -186.507 3044.8C-246.303 3004.3 -278.917 2937.12 -273.748 2865.09L-254.894 2602.39C-236.695 2348.83 -356.155 2102.76 -566.656 1960.22L-784.719 1812.55C-844.515 1772.05 -877.129 1704.87 -871.96 1632.84C-866.791 1560.81 -824.919 1498.98 -759.948 1467.43L-523.019 1352.42C-294.328 1241.39 -140.961 1014.9 -122.762 761.335L-103.909 498.633C-98.7394 426.602 -56.8682 364.772 8.10282 333.224C73.0682 301.69 147.553 307.035 207.355 347.518L425.427 495.192C635.919 637.732 908.746 657.312 1137.45 546.281L1374.38 431.262C1439.34 399.728 1513.83 405.073 1573.63 445.556C1633.42 486.053 1666.04 553.228 1660.87 625.259L1642.01 887.951C1623.81 1141.52 1743.27 1387.58 1953.77 1530.12L2171.84 1677.79C2231.64 1718.29 2264.26 1785.47 2259.09 1857.5C2253.92 1929.53 2212.05 1991.36 2147.07 2022.91L1910.15 2137.92C1681.45 2248.95 1528.09 2475.44 1509.89 2729.01L1491.04 2991.71C1485.87 3063.74 1443.99 3125.57 1379.02 3157.12C1373.56 3159.79 1368.03 3162.18 1362.44 3164.31ZM306.092 2917.93C403.485 2880.75 508.282 2865.15 612.647 2872.64C737.735 2881.61 858.744 2923.53 962.593 2993.84L1180.66 3141.52C1239.99 3181.69 1313.89 3186.99 1378.32 3155.7C1442.77 3124.42 1484.31 3063.07 1489.44 2991.61L1508.29 2728.91C1517.27 2603.82 1559.18 2482.81 1629.5 2378.96C1699.81 2275.12 1796.62 2191.28 1909.45 2136.51L2146.37 2021.49C2210.83 1990.21 2252.36 1928.86 2257.49 1857.41C2262.62 1785.95 2230.26 1719.31 2170.94 1679.13L1952.87 1531.46C1849.03 1461.14 1765.19 1364.34 1710.42 1251.51C1655.65 1138.69 1631.45 1012.94 1640.42 887.852L1641.22 887.913L1640.42 887.852L1659.27 625.15C1664.41 553.691 1632.05 487.049 1572.73 446.883C1513.41 406.708 1439.52 401.404 1375.07 432.698L1138.14 547.716C1119.45 556.79 1100.38 565.035 1081.03 572.422C983.635 609.604 878.838 625.208 774.473 617.718C649.385 608.742 528.377 566.825 424.528 496.509L206.456 348.836C147.136 308.661 73.2442 303.356 8.79715 334.65C-55.6535 365.935 -97.188 427.273 -102.318 498.733L-121.176 761.425C-130.152 886.513 -172.069 1007.52 -242.385 1111.37C-312.703 1215.21 -409.507 1299.05 -522.332 1353.82L-759.261 1468.84C-823.712 1500.13 -865.243 1561.47 -870.377 1632.92C-875.511 1704.37 -843.15 1771.03 -783.834 1811.19L-565.762 1958.86C-461.922 2029.18 -378.082 2125.99 -323.309 2238.81C-268.537 2351.64 -244.335 2477.39 -253.311 2602.47L-272.165 2865.17C-277.295 2936.63 -244.938 3003.28 -185.622 3043.44C-126.302 3083.62 -52.4172 3088.9 12.037 3057.63L248.966 2942.61C267.679 2933.56 286.753 2925.31 306.092 2917.93Z" fill="#ED1C24" fill-opacity="0.2"/>
<path d="M1360.94 3218.71C1296.92 3243.15 1226.4 3234.5 1169.6 3194.57L947.471 3038.43C747.035 2897.53 488.476 2866.42 261.42 2953.11C245.584 2959.15 229.941 2965.76 214.446 2972.95L-31.8357 3087.24C-99.3572 3118.59 -176.034 3111.73 -236.94 3068.92C-297.845 3026.11 -330.25 2956.28 -323.617 2882.14L-299.465 2611.7C-276.147 2350.66 -394.86 2094.85 -609.277 1944.14L-831.406 1787.99C-892.312 1745.18 -924.717 1675.36 -918.084 1601.21C-911.465 1527.07 -867.193 1464.09 -799.671 1432.75L-553.389 1318.45C-315.654 1208.13 -153.482 977.423 -130.167 716.369L-106.006 445.925C-99.3861 371.777 -55.1141 308.806 12.4074 277.462C79.9324 246.127 156.606 252.971 217.511 295.784L439.641 451.927C640.076 592.826 898.636 623.933 1125.69 537.249C1141.53 531.204 1157.17 524.6 1172.67 517.411L1418.95 403.114C1486.46 371.783 1563.15 378.623 1624.04 421.44C1684.95 464.253 1717.35 534.077 1710.72 608.219L1686.56 878.662L1685.76 878.592L1686.56 878.662C1663.24 1139.71 1781.95 1395.51 1996.37 1546.23L2218.5 1702.37C2279.4 1745.18 2311.81 1815.01 2305.18 1889.15C2298.56 1963.3 2254.29 2026.27 2186.76 2057.61L1940.48 2171.91C1702.75 2282.24 1540.57 2512.94 1517.26 2774L1493.1 3044.44C1486.48 3118.59 1442.21 3181.56 1374.69 3212.9C1370.16 3215.01 1365.57 3216.94 1360.94 3218.71ZM261.03 2951.55C365.487 2911.68 478.159 2895.92 589.867 2905.91C718.64 2917.42 842.618 2962.79 948.381 3037.14L1170.51 3193.28C1230.95 3235.76 1307.02 3242.56 1374.02 3211.47C1441.03 3180.37 1484.95 3117.89 1491.52 3044.3L1515.67 2773.86C1527.18 2645.09 1572.55 2521.11 1646.9 2415.35C1721.24 2309.58 1822.54 2224.9 1939.81 2170.48L2186.09 2056.18C2253.09 2025.09 2297.01 1962.59 2303.59 1889.02C2310.16 1815.45 2278 1746.16 2217.58 1703.69L1995.45 1547.54C1889.68 1473.2 1805 1371.91 1750.57 1254.64C1696.15 1137.37 1673.46 1007.31 1684.97 878.531L1709.12 608.091C1715.69 534.519 1683.53 465.231 1623.11 422.758C1562.68 380.28 1486.61 373.483 1419.6 404.577L1173.31 518.877C1056.04 573.303 925.979 595.993 797.205 584.485C668.432 572.977 544.454 527.601 438.691 453.253L216.562 297.11C156.126 254.631 80.0595 247.834 13.0528 278.928C-53.954 310.022 -97.8766 372.507 -104.445 446.089L-128.578 716.522C-140.086 845.295 -185.462 969.273 -259.81 1075.04C-334.154 1180.81 -435.445 1265.48 -552.716 1319.91L-798.998 1434.21C-866.005 1465.3 -909.927 1527.79 -916.495 1601.37C-923.067 1674.94 -890.909 1744.23 -830.487 1786.7L-608.357 1942.84C-502.585 2017.19 -417.91 2118.48 -363.484 2235.75C-309.058 2353.02 -286.372 2483.07 -297.876 2611.85L-322.041 2882.29C-328.613 2955.86 -296.455 3025.15 -236.033 3067.62C-175.598 3110.1 -99.5346 3116.89 -32.5242 3085.8L213.767 2971.5C229.309 2964.3 245.073 2957.65 261.03 2951.55Z" fill="#ED1C24" fill-opacity="0.2"/>
<path d="M1358.55 3274.7C1291.15 3300.43 1217.06 3290.65 1158.18 3247.72L932.031 3082.77C713.725 2923.55 424.633 2892.63 177.596 3002.09L-78.3253 3115.47C-81.8695 3117.04 -85.4399 3118.51 -89.0274 3119.88C-156.423 3145.61 -230.522 3135.83 -289.388 3092.89C-351.385 3047.67 -383.533 2975.13 -375.37 2898.83L-345.599 2620.5C-316.864 2351.84 -434.636 2086.02 -652.942 1926.8L-879.096 1761.85C-941.092 1716.63 -973.241 1644.09 -965.077 1567.79C-956.914 1491.49 -910.155 1427.37 -839.995 1396.3L-584.074 1282.91C-337.034 1173.46 -165.714 938.57 -136.982 669.892L-107.211 391.57C-99.0478 315.27 -52.2896 251.157 17.8705 220.079C88.0176 188.996 166.928 197.437 228.921 242.65L455.075 407.597C673.38 566.817 962.46 597.736 1209.51 488.284L1465.43 374.899C1535.58 343.816 1614.49 352.257 1676.49 397.466C1738.49 442.688 1770.64 515.233 1762.47 591.533L1732.71 869.865L1731.91 869.781L1732.71 869.865C1703.97 1138.53 1821.74 1404.35 2040.05 1563.57L2266.2 1728.52C2328.2 1773.74 2360.35 1846.28 2352.18 1922.58C2344.02 1998.88 2297.26 2063 2227.1 2094.07L1971.18 2207.46C1724.14 2316.91 1552.82 2551.8 1524.09 2820.48L1494.32 3098.8C1486.15 3175.1 1439.4 3239.21 1369.24 3270.29C1365.7 3271.86 1362.12 3273.34 1358.55 3274.7ZM213.62 2985.53C325.513 2942.81 446.428 2927.01 565.804 2939.78C698.326 2953.95 825.292 3002.95 932.976 3081.49L1159.13 3246.44C1220.66 3291.31 1298.96 3299.7 1368.61 3268.84C1438.23 3237.99 1484.64 3174.36 1492.74 3098.63L1522.51 2820.31C1536.69 2687.79 1585.69 2560.82 1664.23 2453.14C1742.76 2345.45 1848.68 2259.99 1970.54 2206.01L2226.46 2092.63C2296.1 2061.77 2342.5 1998.15 2350.6 1922.42C2358.7 1846.69 2326.8 1774.69 2265.26 1729.81L2039.11 1564.86C1931.42 1486.32 1845.97 1380.41 1791.98 1258.55C1737.99 1136.69 1716.95 1002.23 1731.12 869.698L1760.89 591.376C1768.99 515.645 1737.09 443.65 1675.56 398.762C1614.03 353.887 1535.73 345.503 1466.1 376.358L1210.17 489.743C1088.31 543.726 953.858 564.776 821.327 550.603C688.805 536.426 561.839 487.428 454.156 408.89L228.001 243.943C166.469 199.067 88.1505 190.69 18.5345 221.538C-51.1001 252.394 -97.4995 316.017 -105.602 391.747L-135.391 670.077C-149.568 802.599 -198.566 929.565 -277.104 1037.25C-355.643 1144.93 -461.559 1230.39 -583.42 1284.37L-839.341 1397.76C-908.975 1428.61 -955.375 1492.24 -963.477 1567.97C-971.58 1643.7 -939.673 1715.69 -878.138 1760.58L-651.984 1925.52C-544.3 2004.06 -458.843 2109.98 -404.86 2231.84C-350.867 2353.7 -329.826 2488.15 -343.999 2620.69L-373.77 2899.01C-381.872 2974.74 -349.966 3046.73 -288.43 3091.62C-226.898 3136.49 -148.583 3144.86 -78.9636 3114.02L176.957 3000.64C189.049 2995.27 201.288 2990.24 213.62 2985.53Z" fill="#ED1C24" fill-opacity="0.2"/>
<path d="M1355.19 3332.33C1284.26 3359.41 1206.43 3348.4 1145.46 3302.3L915.318 3128.21C693.148 2960.16 395.721 2923.1 139.094 3031.47L-126.738 3143.74C-199.612 3174.49 -280.771 3164.39 -343.859 3116.68C-406.947 3068.96 -438.763 2993.61 -428.988 2915.11L-393.292 2628.76C-358.838 2352.33 -475.449 2076.21 -697.619 1908.16L-927.764 1734.07C-990.852 1686.36 -1022.67 1611.01 -1012.89 1532.51C-1003.12 1454.01 -953.769 1388.78 -880.902 1358.01L-615.07 1245.74C-358.446 1137.36 -177.626 898.311 -143.172 621.883L-107.477 335.529C-97.6887 257.035 -48.3517 191.798 24.5151 161.025C97.3819 130.253 178.548 140.369 241.636 188.086L471.782 362.17C693.951 530.223 991.41 567.277 1248.01 458.912L1513.85 346.642C1586.71 315.87 1667.88 325.986 1730.97 373.703C1794.06 421.42 1825.87 496.768 1816.1 575.267L1780.4 861.621L1779.62 861.525L1780.4 861.621C1745.95 1138.05 1862.56 1414.17 2084.73 1582.22L2314.88 1756.31C2377.97 1804.03 2409.78 1879.39 2400.01 1957.88C2390.22 2036.37 2340.88 2101.6 2268.01 2132.38L2002.17 2244.65C1745.55 2353.03 1564.73 2592.07 1530.28 2868.51L1494.58 3154.86C1484.79 3233.36 1435.45 3298.58 1362.59 3329.37C1360.13 3330.39 1357.66 3331.39 1355.19 3332.33ZM163.754 3019.83C283.429 2974.14 413.031 2958.38 540.369 2974.26C676.718 2991.25 806.705 3044.04 916.285 3126.93L1146.43 3301.02C1206.94 3346.78 1284.22 3357.71 1354.63 3330.83C1357.08 3329.89 1359.52 3328.91 1361.97 3327.88C1434.31 3297.33 1483.29 3232.57 1493 3154.65L1528.7 2868.3C1545.69 2731.95 1598.48 2601.96 1681.37 2492.38C1764.26 2382.8 1874.98 2296.63 2001.55 2243.16L2267.39 2130.89C2339.73 2100.35 2388.72 2035.58 2398.43 1957.67C2408.14 1879.75 2376.55 1804.95 2313.92 1757.58L2083.78 1583.49C1974.2 1500.6 1888.02 1389.89 1834.56 1263.31C1781.11 1136.73 1761.84 997.765 1778.83 861.419L1814.52 575.065C1824.23 497.148 1792.64 422.345 1730.02 374.975C1667.4 327.605 1586.81 317.569 1514.48 348.112L1248.64 460.382C1240.27 463.919 1231.83 467.301 1223.36 470.546C1103.69 516.234 974.087 531.995 846.75 516.118C710.4 499.121 580.413 446.331 470.833 363.442L240.687 189.358C178.064 141.988 97.4831 131.948 25.1511 162.495C-47.1902 193.046 -96.1742 257.806 -105.883 335.723L-141.578 622.077C-158.566 758.423 -211.365 888.414 -294.253 997.993C-377.141 1107.57 -487.857 1193.75 -614.434 1247.21L-880.266 1359.48C-952.607 1390.03 -1001.59 1454.79 -1011.3 1532.7C-1021.01 1610.62 -989.421 1685.42 -926.797 1732.79L-696.651 1906.88C-587.071 1989.77 -500.896 2100.48 -447.434 2227.06C-393.982 2353.64 -374.711 2492.61 -391.698 2628.95L-427.394 2915.31C-437.102 2993.22 -405.515 3068.03 -342.891 3115.4C-280.268 3162.77 -199.697 3172.81 -127.355 3142.26L138.486 3029.99C146.845 3026.46 155.28 3023.06 163.754 3019.83Z" fill="#ED1C24" fill-opacity="0.2"/>
<path d="M1350.83 3391.62C1276.19 3420.11 1194.45 3407.78 1131.37 3358.32L897.275 3174.74C674.975 3000.4 375.257 2955.41 111.896 3055.95C107.534 3057.62 103.232 3059.3 98.8881 3061.05L-177.148 3171.98C-178.421 3172.49 -179.703 3173 -180.983 3173.49C-255.619 3201.98 -337.361 3189.66 -400.433 3140.19C-464.588 3089.87 -496.038 3011.65 -484.545 2930.92L-442.604 2636.39C-402.118 2352.07 -517.352 2065.34 -743.334 1888.12L-977.426 1704.53C-1041.59 1654.22 -1073.03 1575.99 -1061.54 1495.26C-1050.05 1414.53 -998.015 1348.19 -922.353 1317.79L-646.317 1206.85C-379.839 1099.75 -189.155 856.589 -148.659 572.267L-106.719 277.738C-95.2221 197.019 -43.1951 130.669 32.4665 100.264C108.135 69.877 191.595 81.7401 255.751 132.057L489.843 315.639C712.144 489.978 1011.86 534.968 1275.22 434.425C1279.58 432.759 1283.89 431.074 1288.23 429.33L1564.27 318.392C1639.93 287.977 1723.4 299.868 1787.55 350.185C1851.72 400.499 1883.16 478.731 1871.66 559.459L1829.72 853.988C1789.24 1138.31 1904.47 1425.03 2130.45 1602.26L2364.55 1785.84C2428.7 1836.16 2460.15 1914.39 2448.66 1995.12C2437.16 2075.83 2385.13 2142.18 2309.47 2172.59L2033.44 2283.53C1766.96 2390.62 1576.27 2633.78 1535.78 2918.11L1493.84 3212.64C1482.34 3293.36 1430.31 3359.71 1354.65 3390.11C1353.38 3390.63 1352.11 3391.13 1350.83 3391.62ZM111.363 3054.44C239.213 3005.63 377.944 2990.04 513.538 3009.34C653.773 3029.31 786.804 3086.07 898.263 3173.48L1132.36 3357.06C1196.06 3407.03 1278.92 3418.82 1354.07 3388.63C1429.19 3358.44 1480.85 3292.57 1492.26 3212.41L1534.2 2917.89C1554.17 2777.66 1610.93 2644.62 1698.34 2533.16C1785.75 2421.71 1901.42 2334.87 2032.85 2282.05L2308.89 2171.11C2384.01 2140.92 2435.67 2075.04 2447.08 1994.89C2458.5 1914.74 2427.28 1837.06 2363.57 1787.1L2129.48 1603.52C2018.02 1516.11 1931.18 1400.44 1878.37 1269.01C1825.55 1137.59 1808.18 993.999 1828.15 853.764L1828.94 853.879L1828.15 853.764L1870.09 559.235C1881.5 479.083 1850.28 401.399 1786.58 351.446C1722.87 301.483 1639.95 289.669 1564.87 319.876L1288.83 430.814C1284.49 432.558 1280.13 434.265 1275.76 435.934C1147.91 484.743 1009.17 500.339 873.58 481.031C733.355 461.061 600.314 404.309 488.856 316.893L254.763 133.312C191.053 83.3491 108.16 71.5693 33.0523 101.742C-42.0709 131.931 -93.7322 197.81 -105.145 277.962L-147.086 572.491C-167.056 712.715 -223.808 845.756 -311.224 957.215C-398.63 1068.67 -514.31 1155.5 -645.731 1208.33L-921.768 1319.26C-996.891 1349.45 -1048.55 1415.33 -1059.97 1495.48C-1071.38 1575.64 -1040.16 1653.32 -976.452 1703.27L-742.36 1886.85C-630.905 1974.26 -544.066 2089.94 -491.248 2221.36C-438.43 2352.79 -421.064 2496.38 -441.031 2636.61L-482.972 2931.14C-494.385 3011.29 -463.165 3088.98 -399.458 3138.93C-335.748 3188.89 -252.865 3200.68 -177.747 3170.5L98.2893 3059.56C102.633 3057.82 106.991 3056.11 111.363 3054.44Z" fill="#ED1C24" fill-opacity="0.2"/>
<path d="M1345.4 3452.6C1266.88 3482.58 1181.06 3468.82 1115.84 3415.81L877.843 3222.36C648.083 3035.6 333.515 2985.19 56.9077 3090.79L-229.622 3200.18C-308.144 3230.16 -393.964 3216.41 -459.182 3163.39C-524.41 3110.38 -555.407 3029.18 -542.103 2946.19L-493.572 2643.35C-446.724 2351 -560.346 2053.38 -790.105 1866.62L-1028.11 1673.2C-1093.33 1620.19 -1124.33 1538.99 -1111.03 1456C-1097.72 1373.01 -1042.91 1305.56 -964.39 1275.58L-677.861 1166.19C-401.253 1060.59 -200.311 813.376 -153.463 521.02L-104.932 218.184C-91.6241 135.2 -36.8051 67.752 41.7172 37.7745C120.24 7.79686 206.06 21.5526 271.278 74.5684L509.276 268.016C739.035 454.771 1053.6 505.182 1330.21 399.581L1616.74 290.192C1695.26 260.214 1781.08 273.97 1846.3 326.986C1911.52 380.002 1942.52 461.196 1929.22 544.186L1880.69 847.022C1833.84 1139.38 1947.46 1437 2177.22 1623.75L2415.22 1817.2C2480.44 1870.22 2511.44 1951.41 2498.14 2034.4C2484.85 2117.39 2430.03 2184.84 2351.51 2214.81L2064.98 2324.2C1788.37 2429.8 1587.43 2677.02 1540.58 2969.38L1492.05 3272.21C1478.73 3355.18 1423.92 3422.62 1345.4 3452.6ZM-963.823 1277.07C-1041.8 1306.84 -1096.25 1373.83 -1109.46 1456.24C-1122.67 1538.67 -1091.88 1619.31 -1027.1 1671.96L-789.104 1865.41C-675.792 1957.51 -588.373 2078.29 -536.293 2214.71C-484.213 2351.13 -468.898 2499.44 -492.003 2643.62L-540.534 2946.46C-553.746 3028.88 -522.958 3109.52 -458.18 3162.17C-393.402 3214.82 -308.175 3228.48 -230.194 3198.71L56.3348 3089.32C192.752 3037.24 341.073 3021.92 485.246 3045.03C629.429 3068.14 765.529 3129.03 878.841 3221.13L1116.84 3414.58C1181.62 3467.23 1266.84 3480.89 1344.82 3451.12C1422.81 3421.35 1477.25 3354.36 1490.46 3271.94L1538.99 2969.11C1562.09 2824.92 1622.99 2688.83 1715.09 2575.51C1807.19 2462.2 1927.98 2374.78 2064.39 2322.7L2350.92 2213.31C2428.9 2183.54 2483.35 2116.56 2496.56 2034.14C2509.77 1951.72 2478.98 1871.07 2414.2 1818.42L2176.2 1624.98C2062.89 1532.87 1975.47 1412.09 1923.39 1275.67C1871.31 1139.26 1856 990.944 1879.1 846.761L1879.89 846.888L1879.1 846.761L1927.63 543.925C1940.85 461.502 1910.06 380.859 1845.28 328.21C1780.5 275.562 1695.27 261.901 1617.29 291.672L1330.76 401.06C1194.35 453.14 1046.04 468.455 901.853 445.35C757.67 422.246 621.571 361.352 508.259 269.249L270.261 75.8022C205.492 23.1501 120.265 9.48918 42.2843 39.2599C-35.696 69.0306 -90.1458 136.016 -103.348 218.436L-151.879 521.271C-174.984 665.455 -235.877 801.554 -327.98 914.866C-420.083 1028.18 -540.868 1115.6 -677.284 1167.68L-963.823 1277.07Z" fill="#ED1C24" fill-opacity="0.2"/>
</svg>
