<svg width="36" height="52" viewBox="0 0 36 52" fill="none" xmlns="http://www.w3.org/2000/svg">
<path fill-rule="evenodd" clip-rule="evenodd" d="M26.5192 45.8848L26.2973 46.0145L17.5296 51.093L8.76481 46.0145L0 40.9389V32.8082L9.19138 35.6414L17.5296 40.472L26.5192 45.8848Z" fill="#F41616"/>
<path fill-rule="evenodd" clip-rule="evenodd" d="M9.20579 46.271L8.76481 46.0145L0 40.939V30.7849V30.4592V20.6338V20.3052V10.154L9.71306 11.1801L9.19138 15.4515V17.985V25.1098V25.9832V33.4827V35.6414L9.20579 46.271Z" fill="#F41616"/>
<path fill-rule="evenodd" clip-rule="evenodd" d="M17.5296 0L25.5076 4.62019L17.5296 10.621L9.19138 15.4515L0 21.2217V20.6338V20.3052V10.154L8.76481 5.07558L17.5296 0Z" fill="#F41616"/>
<path fill-rule="evenodd" clip-rule="evenodd" d="M17.5295 0L26.2971 5.07558L35.062 10.154V20.3052V20.6338V20.6655L25.8158 15.4198L17.5295 10.621L8.76465 5.07558L17.5295 0Z" fill="#F2F2F2"/>
<path fill-rule="evenodd" clip-rule="evenodd" d="M35.0621 10.154V20.3052V20.6338V20.6655L26.6922 25.5451L17.6968 30.9434V20.1496L25.816 15.4198L35.0621 10.154Z" fill="#F41616"/>
<path fill-rule="evenodd" clip-rule="evenodd" d="M26.6922 25.5451L35.0621 30.4246V30.4592V30.7849V40.939L25.816 35.6731L17.6968 30.9434V20.1496L26.6922 25.5451Z" fill="#F2F2F2"/>
<path fill-rule="evenodd" clip-rule="evenodd" d="M35.0623 30.4592V30.7849V40.9389L26.5194 45.8848L17.5298 40.472L25.8161 35.6731L35.0623 30.4592Z" fill="#F41616"/>
</svg>
